<svg width="260" height="160" viewBox="0 0 260 160" fill="none" xmlns="http://www.w3.org/2000/svg">
<g clip-path="url(#clip0_2001_244)">
<path d="M260 149.08C260 151.792 201.993 154 130.431 154C58.8698 154 0.84613 151.808 0.84613 149.08C0.84613 146.352 58.8535 144.16 130.415 144.16C201.976 144.16 259.984 146.369 259.984 149.08H260Z" fill="#D3E2F4"/>
<path d="M231.281 103.617C231.281 104.737 230.858 105.744 230.158 106.491H168.018L167.449 106.117C166.879 105.727 166.375 105.257 166.017 104.656C165.773 104.266 165.61 103.86 165.512 103.454C164.861 100.856 166.684 98.1935 169.336 98.0474C170.508 97.9824 171.581 98.4208 172.379 99.1353C172.379 99.0216 172.362 98.8917 172.362 98.7618C172.362 95.1572 175.259 92.2508 178.822 92.2508C181.946 92.2508 184.566 94.4915 185.152 97.4791C185.233 97.9013 185.282 98.3234 185.282 98.7618C185.282 98.9729 185.282 99.1677 185.249 99.3788H185.282C186.486 99.3788 187.576 99.8984 188.341 100.71C188.373 99.9958 188.585 99.3301 188.927 98.7456C189.659 97.5116 190.993 96.6672 192.523 96.6672C194.313 96.6672 195.826 97.7876 196.428 99.3788C197.193 98.5507 198.283 98.0149 199.503 98.0149C200.512 98.0149 201.439 98.3721 202.172 98.9729C202.53 96.0015 205.019 93.6959 208.062 93.6959C209.054 93.6959 209.982 93.9394 210.812 94.3778C212.292 91.033 215.758 88.7761 219.696 89.1171C224.724 89.5554 228.385 94.2966 227.653 99.3139C227.653 99.3301 227.653 99.3626 227.653 99.3788C229.247 99.5899 230.565 100.71 231.07 102.22C231.216 102.642 231.297 103.097 231.297 103.568L231.281 103.617Z" fill="white"/>
<g opacity="0.5">
<path d="M58.8535 64.9077C58.8535 65.0863 58.7884 65.2649 58.6745 65.3786H48.4073L48.3096 65.3137C48.212 65.2487 48.1307 65.1675 48.0656 65.0701C48.033 65.0052 48.0005 64.9402 47.9842 64.8753C47.8703 64.4369 48.1795 63.9985 48.6188 63.9822C48.8141 63.9822 48.993 64.0472 49.1232 64.1608C49.1232 64.1446 49.1232 64.1284 49.1232 64.0959C49.1232 63.4951 49.5951 63.0242 50.1971 63.0242C50.7178 63.0242 51.1409 63.3977 51.2385 63.8848C51.2385 63.9498 51.2548 64.0309 51.2548 64.0959C51.2548 64.1284 51.2548 64.1608 51.2548 64.1933C51.45 64.1933 51.629 64.2745 51.7592 64.4206C51.7592 64.307 51.7917 64.1933 51.8568 64.0959C51.9707 63.8848 52.1985 63.7549 52.4588 63.7549C52.7517 63.7549 53.0121 63.9335 53.1097 64.2095C53.2399 64.0796 53.4189 63.9822 53.6141 63.9822C53.7768 63.9822 53.9395 64.0472 54.0534 64.1446C54.1185 63.6575 54.5253 63.2678 55.0297 63.2678C55.1924 63.2678 55.3551 63.3165 55.4853 63.3815C55.7294 62.8294 56.2989 62.456 56.9497 62.5209C57.7796 62.6021 58.3816 63.3815 58.2677 64.2095C58.5281 64.242 58.7559 64.4369 58.8372 64.6804C58.8535 64.7454 58.8698 64.8265 58.8698 64.9077H58.8535Z" fill="white"/>
</g>
<path d="M178.236 73.3347C178.236 73.5945 178.285 73.8543 178.367 74.0978H178.611H180.872H182.679C182.679 74.0978 182.711 74.1303 182.727 74.1466C182.727 74.1466 182.727 74.1141 182.727 74.0978H187.218H187.902H189.936H191.042H193.483H196.965C197.062 74.0978 197.551 74.0978 197.583 74.0978H203.359H204.612C204.645 74.0978 204.759 74.0978 204.905 74.0978C205.263 74.0978 205.849 74.0816 205.898 74.0816C205.898 74.0816 206.711 73.4971 206.679 72.3767C206.646 71.4025 205.8 70.6881 204.856 70.6881C204.661 70.6881 204.482 70.7206 204.303 70.7855C204.319 70.6556 204.336 70.5257 204.336 70.3958C204.336 69.0806 203.278 68.0252 201.976 68.0252C201.407 68.0252 200.886 68.2363 200.479 68.561C199.845 67.4245 198.641 66.6613 197.241 66.6613C195.468 66.6613 193.987 67.9116 193.629 69.584C193.597 69.7626 193.564 69.9412 193.548 70.1198C193.548 70.1198 193.499 70.0873 193.466 70.0711C193.108 69.8438 192.685 69.7139 192.23 69.7139C191.156 69.7139 190.261 70.4283 189.968 71.4187C189.675 71.1752 189.301 71.0291 188.894 71.0291C188.894 71.0291 188.862 71.0291 188.845 71.0291C188.634 71.0291 188.439 71.0778 188.26 71.1427C188.162 70.4121 187.837 69.7463 187.348 69.243C186.73 68.5935 185.868 68.2038 184.908 68.2038C183.15 68.2038 181.719 69.5515 181.54 71.2726C181.23 71.1102 180.872 71.0291 180.514 71.0291C179.229 71.0291 178.188 72.0682 178.188 73.3672L178.236 73.3347Z" fill="white"/>
<path d="M76.9472 23.4385C76.9472 23.8769 77.0123 24.2828 77.1588 24.6725H77.5493H81.2754H84.2368C84.2693 24.705 84.2856 24.7212 84.3182 24.7375C84.3182 24.7212 84.3344 24.6888 84.3507 24.6725H91.7054H92.8118H96.1312H97.9373H101.924H107.635C107.635 24.6725 107.635 24.6725 107.651 24.6725C107.798 24.6725 108.595 24.6725 108.66 24.6725H118.13H120.197C120.229 24.6725 120.424 24.6725 120.685 24.6725C121.287 24.6725 122.214 24.64 122.328 24.64C122.328 24.64 123.662 23.6821 123.613 21.8473C123.565 20.2398 122.165 19.087 120.62 19.087C120.31 19.087 120.001 19.1357 119.725 19.2331C119.757 19.022 119.79 18.811 119.79 18.5837C119.79 16.4404 118.065 14.6868 115.933 14.6868C115.006 14.6868 114.144 15.0278 113.476 15.5798C112.435 13.7126 110.45 12.4461 108.172 12.4461C105.276 12.4461 102.835 14.4919 102.233 17.236C102.168 17.5282 102.119 17.8205 102.103 18.129C102.103 18.129 102.021 18.0641 101.973 18.0478C101.387 17.6744 100.687 17.4633 99.9387 17.4633C98.1814 17.4633 96.7007 18.6324 96.2288 20.2561C95.7569 19.8664 95.1386 19.6228 94.4715 19.6228C94.4552 19.6228 94.4227 19.6228 94.4064 19.6228C94.0647 19.6228 93.7555 19.704 93.4464 19.8177C93.2837 18.6161 92.7467 17.5282 91.9494 16.7002C90.9406 15.6448 89.525 14.9953 87.9629 14.9953C85.0829 14.9953 82.7236 17.2035 82.4469 20.0287C81.9425 19.769 81.3568 19.6228 80.7547 19.6228C78.6557 19.6228 76.9472 21.3439 76.9472 23.4547V23.4385Z" fill="white"/>
<g opacity="0.6">
<path d="M105.748 41.6239C105.748 41.8512 105.829 42.0623 105.975 42.2247H118.895L119.009 42.1435C119.123 42.0623 119.236 41.9649 119.302 41.835C119.35 41.7538 119.383 41.6726 119.399 41.5914C119.529 41.0556 119.155 40.5036 118.602 40.4711C118.358 40.4711 118.13 40.5523 117.967 40.6984C117.967 40.6659 117.967 40.6497 117.967 40.6172C117.967 39.8703 117.365 39.2696 116.617 39.2696C115.966 39.2696 115.429 39.7404 115.299 40.3574C115.283 40.4386 115.266 40.536 115.266 40.6172C115.266 40.6659 115.266 40.6984 115.266 40.7471C115.022 40.7471 114.794 40.8608 114.632 41.0232C114.632 40.877 114.583 40.7309 114.518 40.6172C114.371 40.3574 114.095 40.1788 113.769 40.1788C113.395 40.1788 113.086 40.4061 112.956 40.7471C112.793 40.5685 112.565 40.4711 112.321 40.4711C112.11 40.4711 111.914 40.5523 111.768 40.6659C111.703 40.0489 111.182 39.5618 110.548 39.5618C110.336 39.5618 110.141 39.6105 109.978 39.708C109.669 39.0098 108.953 38.5389 108.139 38.6201C107.098 38.7175 106.333 39.6917 106.48 40.7471C106.154 40.7958 105.878 41.0232 105.764 41.3317C105.731 41.4128 105.715 41.5103 105.715 41.6077L105.748 41.6239Z" fill="white"/>
</g>
<path d="M63.263 108.114C63.263 108.991 63.6047 109.803 64.158 110.404H113.395L113.851 110.095C114.306 109.787 114.713 109.413 114.99 108.942C115.185 108.634 115.299 108.325 115.38 108.001C115.885 105.939 114.453 103.828 112.354 103.714C111.426 103.665 110.58 104.006 109.946 104.575C109.946 104.477 109.946 104.38 109.946 104.282C109.946 101.425 107.651 99.119 104.82 99.119C102.331 99.119 100.264 100.905 99.7922 103.259C99.7271 103.584 99.6946 103.925 99.6946 104.282C99.6946 104.445 99.6946 104.607 99.7109 104.77H99.6946C98.7346 104.77 97.8722 105.175 97.2702 105.825C97.2376 105.257 97.0749 104.737 96.8146 104.266C96.2451 103.276 95.1712 102.626 93.9671 102.626C92.5515 102.626 91.3474 103.519 90.8755 104.77C90.2735 104.104 89.3948 103.682 88.4348 103.682C87.6375 103.682 86.889 103.974 86.3195 104.445C86.0429 102.09 84.0578 100.272 81.6497 100.272C80.8686 100.272 80.1202 100.467 79.4693 100.808C78.2978 98.1611 75.5479 96.3587 72.4401 96.6348C68.4536 96.992 65.541 100.743 66.1431 104.721C66.1431 104.737 66.1431 104.753 66.1431 104.77C64.8739 104.948 63.8325 105.825 63.442 107.026C63.3281 107.367 63.263 107.725 63.263 108.098V108.114Z" fill="white"/>
<g opacity="0.8">
<path d="M197.762 114.154C197.762 114.382 197.86 114.593 198.006 114.755H211.072L211.186 114.674C211.3 114.593 211.414 114.495 211.495 114.366C211.544 114.284 211.576 114.203 211.593 114.122C211.723 113.57 211.349 113.018 210.795 112.985C210.551 112.985 210.324 113.067 210.161 113.213C210.161 113.18 210.161 113.164 210.161 113.132C210.161 112.368 209.559 111.768 208.81 111.768C208.159 111.768 207.606 112.239 207.476 112.872C207.46 112.953 207.444 113.05 207.444 113.148C207.444 113.196 207.444 113.229 207.444 113.278C207.183 113.278 206.955 113.391 206.793 113.554C206.793 113.408 206.744 113.261 206.662 113.148C206.516 112.888 206.223 112.709 205.898 112.709C205.523 112.709 205.198 112.953 205.084 113.278C204.921 113.099 204.694 112.985 204.433 112.985C204.222 112.985 204.027 113.067 203.88 113.18C203.799 112.563 203.278 112.076 202.643 112.076C202.432 112.076 202.237 112.125 202.074 112.222C201.765 111.524 201.033 111.037 200.203 111.118C199.145 111.216 198.38 112.206 198.527 113.261C198.185 113.31 197.908 113.537 197.811 113.862C197.778 113.943 197.762 114.041 197.762 114.138V114.154Z" fill="white"/>
</g>
<path d="M52.0032 54.6297C52.0032 55.1655 52.2148 55.6527 52.5565 56.0261H82.691L82.9676 55.8475C83.2442 55.6689 83.4883 55.4253 83.6673 55.1331C83.7812 54.9382 83.8626 54.7434 83.9114 54.5485C84.2205 53.2821 83.3419 51.9993 82.0564 51.9182C81.4869 51.8857 80.9663 52.0968 80.5757 52.454C80.5757 52.389 80.5757 52.3403 80.5757 52.2754C80.5757 50.538 79.1764 49.1092 77.4354 49.1092C75.9221 49.1092 74.653 50.197 74.3601 51.6421C74.3275 51.837 74.295 52.048 74.295 52.2591C74.295 52.3565 74.295 52.454 74.295 52.5514C73.7092 52.5514 73.1885 52.7949 72.8143 53.2009C72.8143 52.8599 72.7004 52.5352 72.5377 52.2591C72.1797 51.6584 71.5289 51.2524 70.7967 51.2524C69.9343 51.2524 69.2021 51.8045 68.8929 52.5676C68.5187 52.1617 67.998 51.9019 67.3959 51.9019C66.9078 51.9019 66.4522 52.0805 66.1105 52.3728C65.9478 50.9277 64.7274 49.8073 63.2467 49.8073C62.7586 49.8073 62.3193 49.921 61.9125 50.1321C61.1966 48.5084 59.5206 47.4205 57.6006 47.5829C55.1599 47.794 53.3863 50.0996 53.7443 52.5352C53.7443 52.5352 53.7443 52.5514 53.7443 52.5676C52.9633 52.6651 52.3287 53.2171 52.0846 53.9478C52.0195 54.1589 51.9707 54.3699 51.9707 54.5973L52.0032 54.6297Z" fill="white"/>
<path d="M138.111 106.978V140.036H137.102L132.986 138.883L128.869 140.036H127.877V106.978H138.111Z" fill="#473C56"/>
<path d="M132.986 126.673V139.403L128.869 140.134L86.2382 147.781C81.9751 148.544 77.6469 148.934 73.3187 148.934H70.2923C69.1045 148.934 68.4699 147.505 69.2834 146.645C70.455 145.378 72.0658 143.901 73.8394 142.991C77.3866 141.189 84.6924 139.143 88.5813 138.153L127.86 128.005L132.986 126.689V126.673Z" fill="#473C56"/>
<path d="M132.986 126.673V139.403L137.102 140.134L179.733 147.781C183.997 148.544 188.325 148.934 192.653 148.934H195.679C196.867 148.934 197.502 147.505 196.688 146.645C195.517 145.378 193.906 143.901 192.132 142.991C188.585 141.189 181.279 139.143 177.39 138.153L138.111 128.005L132.986 126.689V126.673Z" fill="#473C56"/>
<path d="M199.292 6H66.8753C66.0454 6 65.3783 6.81185 65.3783 7.81854V106.491C65.3783 107.497 66.0454 108.309 66.8753 108.309H199.275C200.105 108.309 200.772 107.497 200.772 106.491V7.81854C200.772 6.81185 200.105 6 199.275 6H199.292Z" fill="#BEDDF4"/>
<path d="M199.584 7.99714V106.085C199.584 106.572 199.194 106.978 198.738 106.978H67.2333C66.7614 106.978 66.3871 106.588 66.3871 106.085V7.99714C66.3871 7.51003 66.7777 7.10411 67.2333 7.10411H198.738C199.21 7.10411 199.584 7.4938 199.584 7.99714Z" fill="white"/>
<path d="M198.738 107.416H67.2333C66.5173 107.416 65.9478 106.832 65.9478 106.101V7.99714C65.9478 7.26648 66.5336 6.68195 67.2333 6.68195H198.738C199.454 6.68195 200.024 7.26648 200.024 7.99714V106.085C200.024 106.815 199.438 107.4 198.738 107.4V107.416ZM67.2333 7.55874C67.0055 7.55874 66.8102 7.75359 66.8102 8.01338V106.101C66.8102 106.344 67.0055 106.556 67.2333 106.556H198.738C198.966 106.556 199.161 106.361 199.161 106.101V7.99714C199.161 7.75359 198.966 7.54251 198.738 7.54251H67.2333V7.55874Z" fill="#BEDDF4"/>
<path d="M199.584 7.96467V14.2809H66.3871V7.96467C66.3871 7.4938 66.7777 7.12035 67.2333 7.12035H198.738C199.21 7.12035 199.584 7.51003 199.584 7.96467Z" fill="#BCCFEB"/>
<path d="M72.3424 12.6409C73.4118 12.6409 74.2787 11.7758 74.2787 10.7087C74.2787 9.6416 73.4118 8.77652 72.3424 8.77652C71.2731 8.77652 70.4062 9.6416 70.4062 10.7087C70.4062 11.7758 71.2731 12.6409 72.3424 12.6409Z" fill="white"/>
<path d="M72.3424 13.0793C71.0407 13.0793 69.9668 12.0239 69.9668 10.7087C69.9668 9.39352 71.0245 8.33812 72.3424 8.33812C73.6604 8.33812 74.7181 9.39352 74.7181 10.7087C74.7181 12.0239 73.6604 13.0793 72.3424 13.0793ZM72.3424 9.21492C71.5126 9.21492 70.8455 9.88063 70.8455 10.7087C70.8455 11.5368 71.5126 12.2025 72.3424 12.2025C73.1723 12.2025 73.8394 11.5368 73.8394 10.7087C73.8394 9.88063 73.1723 9.21492 72.3424 9.21492Z" fill="#BEDDF4"/>
<path d="M78.3791 12.6409C79.4485 12.6409 80.3154 11.7758 80.3154 10.7087C80.3154 9.6416 79.4485 8.77652 78.3791 8.77652C77.3097 8.77652 76.4428 9.6416 76.4428 10.7087C76.4428 11.7758 77.3097 12.6409 78.3791 12.6409Z" fill="white"/>
<path d="M78.3791 13.0793C77.0774 13.0793 76.0035 12.0239 76.0035 10.7087C76.0035 9.39352 77.0611 8.33812 78.3791 8.33812C79.6971 8.33812 80.7547 9.39352 80.7547 10.7087C80.7547 12.0239 79.6971 13.0793 78.3791 13.0793ZM78.3791 9.21492C77.5493 9.21492 76.8822 9.88063 76.8822 10.7087C76.8822 11.5368 77.5493 12.2025 78.3791 12.2025C79.209 12.2025 79.8761 11.5368 79.8761 10.7087C79.8761 9.88063 79.209 9.21492 78.3791 9.21492Z" fill="#BEDDF4"/>
<path d="M84.4158 12.6409C85.4852 12.6409 86.3521 11.7758 86.3521 10.7087C86.3521 9.6416 85.4852 8.77652 84.4158 8.77652C83.3464 8.77652 82.4795 9.6416 82.4795 10.7087C82.4795 11.7758 83.3464 12.6409 84.4158 12.6409Z" fill="white"/>
<path d="M84.4158 13.0793C83.1141 13.0793 82.0402 12.0239 82.0402 10.7087C82.0402 9.39352 83.0978 8.33812 84.4158 8.33812C85.7338 8.33812 86.7914 9.39352 86.7914 10.7087C86.7914 12.0239 85.7338 13.0793 84.4158 13.0793ZM84.4158 9.21492C83.5859 9.21492 82.9188 9.88063 82.9188 10.7087C82.9188 11.5368 83.5859 12.2025 84.4158 12.2025C85.2456 12.2025 85.9127 11.5368 85.9127 10.7087C85.9127 9.88063 85.2456 9.21492 84.4158 9.21492Z" fill="#BEDDF4"/>
<path d="M161.916 9.91312H104.072V11.5043H161.916V9.91312Z" fill="white"/>
<g opacity="0.4">
<path d="M192.279 28.6668H73.7092V35.7461H192.279V28.6668Z" fill="#BEDDF4"/>
</g>
<g opacity="0.4">
<path d="M192.279 42.793H73.7092V49.8723H192.279V42.793Z" fill="#BEDDF4"/>
</g>
<g opacity="0.4">
<path d="M192.279 56.9354H73.7092V64.0147H192.279V56.9354Z" fill="#BEDDF4"/>
</g>
<g opacity="0.4">
<path d="M192.279 71.0615H73.7092V78.1409H192.279V71.0615Z" fill="#BEDDF4"/>
</g>
<g opacity="0.4">
<path d="M192.279 85.2039H73.7092V92.2833H192.279V85.2039Z" fill="#BEDDF4"/>
</g>
<path d="M192.279 21.6037H73.7092V28.6831H192.279V21.6037Z" fill="#BCCFEB"/>
<path d="M192.279 35.7299H73.7092V42.8092H192.279V35.7299Z" fill="#BCCFEB"/>
<path d="M192.279 49.8723H73.7092V56.9516H192.279V49.8723Z" fill="#BCCFEB"/>
<path d="M192.279 63.9985H73.7092V71.0778H192.279V63.9985Z" fill="#BCCFEB"/>
<path d="M192.279 78.1246H73.7092V85.2039H192.279V78.1246Z" fill="#BCCFEB"/>
<path d="M192.279 92.267H73.7092V99.3464H192.279V92.267Z" fill="#BCCFEB"/>
<path d="M120.831 61.3356L164.65 61.3356V59.582L120.831 59.582V61.3356Z" fill="white"/>
<path d="M96.4566 61.3356H118.211V59.582H96.4566V61.3356Z" fill="white"/>
<path d="M145.206 40.1463H164.634V38.3928H145.206V40.1463Z" fill="#F8CD9F"/>
<path d="M96.4566 40.1463L142.911 40.1463V38.3928L96.4566 38.3928V40.1463Z" fill="#F8CD9F"/>
<path d="M187.902 38.3928H173.518V40.1464H187.902V38.3928Z" fill="#F8CD9F"/>
<path d="M187.902 59.5982H173.518V61.3518H187.902V59.5982Z" fill="white"/>
<path d="M120.815 82.5573H164.634V80.8037H120.815V82.5573Z" fill="white"/>
<path d="M96.4403 82.5573H118.195V80.8037H96.4403V82.5573Z" fill="white"/>
<path d="M187.885 80.7875H173.501V82.5411H187.885V80.7875Z" fill="white"/>
<path d="M87.5887 80.7875H78.1025V82.5411H87.5887V80.7875Z" fill="white"/>
<path d="M120.831 33.0833L164.65 33.0833V31.3297L120.831 31.3297V33.0833Z" fill="white"/>
<path d="M96.4566 33.0833H118.211V31.3297L96.4566 31.3297V33.0833Z" fill="white"/>
<path d="M187.902 31.3297H173.518V33.0833H187.902V31.3297Z" fill="white"/>
<path d="M87.5887 31.3297H78.1025V33.0833H87.5887V31.3297Z" fill="white"/>
<path d="M87.5887 38.3928H78.1025V40.1464H87.5887V38.3928Z" fill="#EF7B7B"/>
<path d="M127.779 75.478H164.634V73.7244H127.779V75.478Z" fill="white"/>
<path d="M96.4241 75.478H125.664V73.7244H96.4241V75.478Z" fill="white"/>
<path d="M187.885 73.7244H173.501V75.478H187.885V73.7244Z" fill="white"/>
<path d="M87.5887 73.7244H78.1025V75.478H87.5887V73.7244Z" fill="white"/>
<path d="M127.779 47.2257L164.634 47.2257V45.4721L127.779 45.4721V47.2257Z" fill="#F8CD9F"/>
<path d="M96.4403 47.2257L125.68 47.2257V45.4721H96.4403V47.2257Z" fill="#F8CD9F"/>
<path d="M187.902 45.4558H173.518V47.2094H187.902V45.4558Z" fill="#F8CD9F"/>
<path d="M87.5887 45.4558H78.1025V47.2094H87.5887V45.4558Z" fill="#F8CD9F"/>
<path d="M140.259 52.5189H96.4403V54.2725H140.259V52.5189Z" fill="#F8CD9F"/>
<path d="M164.634 52.5189H142.879V54.2725H164.634V52.5189Z" fill="#F8CD9F"/>
<path d="M187.902 52.5189H173.518V54.2725H187.902V52.5189Z" fill="#F8CD9F"/>
<path d="M87.5887 52.5189H78.1025V54.2725H87.5887V52.5189Z" fill="#F8CD9F"/>
<path d="M87.5887 59.5982H78.1025V61.3518H87.5887V59.5982Z" fill="white"/>
<path d="M140.259 94.9299H96.4403V96.6835H140.259V94.9299Z" fill="white"/>
<path d="M164.634 94.9299H142.879V96.6835H164.634V94.9299Z" fill="white"/>
<path d="M187.885 94.9299H173.501V96.6835H187.885V94.9299Z" fill="white"/>
<path d="M87.5887 94.9299H78.1025V96.6835H87.5887V94.9299Z" fill="white"/>
<path d="M140.259 87.8506H96.4403V89.6042H140.259V87.8506Z" fill="white"/>
<path d="M164.634 87.8506H142.879V89.6042H164.634V87.8506Z" fill="white"/>
<path d="M187.885 87.8506H173.501V89.6042H187.885V87.8506Z" fill="white"/>
<path d="M87.5887 87.8506H78.1025V89.6042H87.5887V87.8506Z" fill="white"/>
<path d="M133.344 126.787V139.517L129.227 140.247L86.5962 147.895C82.3331 148.658 78.0049 149.048 73.6767 149.048H70.6502C69.4624 149.048 68.8278 147.619 69.6414 146.758C70.813 145.492 72.4238 144.014 74.1974 143.105C77.7445 141.303 85.0504 139.257 88.9392 138.266L128.218 128.118L133.344 126.803V126.787Z" fill="#473C56"/>
<path d="M133.344 126.787V139.517L137.46 140.247L180.091 147.895C184.354 148.658 188.683 149.048 193.011 149.048H196.037C197.225 149.048 197.86 147.619 197.046 146.758C195.875 145.492 194.264 144.014 192.49 143.105C188.943 141.303 181.637 139.257 177.748 138.266L138.469 128.118L133.344 126.803V126.787Z" fill="#473C56"/>
<path d="M149.68 43.9458L152.414 52.1617L154.025 49.5313L156.514 52.048L157.783 50.8303L155.261 48.2811L157.848 46.6574L149.68 43.9458Z" fill="#E96462"/>
<path d="M44.6323 145.492H41.313V149.064H44.6323V145.492Z" fill="#4399CE"/>
<path d="M68.779 145.492H65.4597V149.064H68.779V145.492Z" fill="#4399CE"/>
<path d="M70.7641 93.5497H38.7421V146.336H70.7641V93.5497Z" fill="#60B4DD"/>
<path d="M48.3747 93.5497H38.7421V146.336H48.3747V93.5497Z" fill="#42A3DB"/>
<path d="M68.2909 95.8392H50.8317C50.4273 95.8392 50.0995 96.1663 50.0995 96.5698V102.886C50.0995 103.29 50.4273 103.617 50.8317 103.617H68.2909C68.6953 103.617 69.0231 103.29 69.0231 102.886V96.5698C69.0231 96.1663 68.6953 95.8392 68.2909 95.8392Z" fill="#42A3DB"/>
<path d="M64.5485 99.3139H54.5741V100.142H64.5485V99.3139Z" fill="#BEDDF4"/>
<path d="M68.2909 116.005H50.8317C50.4273 116.005 50.0995 116.333 50.0995 116.736V123.052C50.0995 123.456 50.4273 123.783 50.8317 123.783H68.2909C68.6953 123.783 69.0231 123.456 69.0231 123.052V116.736C69.0231 116.333 68.6953 116.005 68.2909 116.005Z" fill="#42A3DB"/>
<path d="M64.5485 119.48H54.5741V120.308H64.5485V119.48Z" fill="#BEDDF4"/>
<path d="M68.2909 126.072H50.8317C50.4273 126.072 50.0995 126.4 50.0995 126.803V133.119C50.0995 133.523 50.4273 133.85 50.8317 133.85H68.2909C68.6953 133.85 69.0231 133.523 69.0231 133.119V126.803C69.0231 126.4 68.6953 126.072 68.2909 126.072Z" fill="#42A3DB"/>
<path d="M64.5485 129.531H54.5741V130.359H64.5485V129.531Z" fill="#BEDDF4"/>
<path d="M68.2909 136.123H50.8317C50.4273 136.123 50.0995 136.45 50.0995 136.854V143.17C50.0995 143.573 50.4273 143.901 50.8317 143.901H68.2909C68.6953 143.901 69.0231 143.573 69.0231 143.17V136.854C69.0231 136.45 68.6953 136.123 68.2909 136.123Z" fill="#42A3DB"/>
<path d="M64.5485 139.598H54.5741V140.426H64.5485V139.598Z" fill="#BEDDF4"/>
<path d="M57.6982 105.922H50.0995V113.7H57.6982V105.922Z" fill="#4399CE"/>
<path d="M81.1941 94.8325H69.5112C69.0394 94.8325 68.6651 94.4428 68.6651 93.9881V92.4781C68.6651 91.8936 68.1932 91.4389 67.6237 91.4389H61.8149C61.2291 91.4389 60.7735 91.9098 60.7735 92.4781V107.27C60.7735 107.855 61.2454 108.309 61.8149 108.309H81.2103C81.7961 108.309 82.2517 107.838 82.2517 107.27V95.8879C82.2517 95.3033 81.7798 94.8487 81.2103 94.8487L81.1941 94.8325Z" fill="#F79D7F"/>
<path d="M86.3033 75.0883H71.594V94.8H86.3033V75.0883Z" fill="#EAF7FE"/>
<path d="M86.4497 94.9461H71.4475V74.9422H86.4497V94.9461ZM71.7404 94.6539H86.1568V75.2344H71.7404V94.6539Z" fill="#BEDDF4"/>
<path d="M84.6599 76.7445H73.156V80.6089H84.6599V76.7445Z" fill="#9BC9E3"/>
<path d="M84.7087 81.7617H77.4028V82.1676H84.7087V81.7617Z" fill="#9BC9E3"/>
<path d="M80.6083 86.5029H73.3024V86.9088H80.6083V86.5029Z" fill="#9BC9E3"/>
<path d="M84.7087 83.3529H73.2048V83.7588H84.7087V83.3529Z" fill="#9BC9E3"/>
<path d="M84.7575 84.9279H73.2536V85.3338H84.7575V84.9279Z" fill="#9BC9E3"/>
<path d="M84.7575 86.1457H81.552V91.4714H84.7575V86.1457Z" fill="#9BC9E3"/>
<path d="M83.6836 78.4169H68.9743V98.1286H83.6836V78.4169Z" fill="white"/>
<path d="M83.83 98.2747H68.8278V78.2707H83.83V98.2747ZM69.1044 97.9824H83.5209V78.563H69.1044V97.9824Z" fill="#BEDDF4"/>
<path d="M82.0239 80.0893H70.5201V83.9537H82.0239V80.0893Z" fill="#BEDDF4"/>
<path d="M82.0727 85.1065H74.7669V85.5124H82.0727V85.1065Z" fill="#BEDDF4"/>
<path d="M77.9723 89.8477H70.6665V90.2536H77.9723V89.8477Z" fill="#BEDDF4"/>
<path d="M77.9723 91.3577H70.6665V91.7637H77.9723V91.3577Z" fill="#BEDDF4"/>
<path d="M77.9723 94.3941H70.6665V94.8H77.9723V94.3941Z" fill="#BEDDF4"/>
<path d="M77.9723 92.884H70.6665V93.2899H77.9723V92.884Z" fill="#BEDDF4"/>
<path d="M82.0727 86.6815H70.5688V87.0874H82.0727V86.6815Z" fill="#BEDDF4"/>
<path d="M82.1215 88.2727H70.6177V88.6786H82.1215V88.2727Z" fill="#BEDDF4"/>
<path d="M82.1215 89.4743H78.9161V94.8H82.1215V89.4743Z" fill="#BEDDF4"/>
<path d="M70.5201 80.0893L82.0239 83.9537H70.5201V80.0893Z" fill="#9BC9E3"/>
<path d="M79.99 94.8325H68.3071C67.8353 94.8325 67.461 94.4428 67.461 93.9881V92.4781C67.461 91.8936 66.9892 91.4389 66.4197 91.4389H60.6108C60.025 91.4389 59.5694 91.9098 59.5694 92.4781V107.27C59.5694 107.855 60.0413 108.309 60.6108 108.309H80.0062C80.592 108.309 81.0476 107.838 81.0476 107.27V95.8879C81.0476 95.3033 80.5757 94.8487 80.0062 94.8487L79.99 94.8325Z" fill="#FCBC7B"/>
<path d="M73.7743 105.922H56.3152C55.9108 105.922 55.5829 106.249 55.5829 106.653V112.969C55.5829 113.373 55.9108 113.7 56.3152 113.7H73.7743C74.1787 113.7 74.5065 113.373 74.5065 112.969V106.653C74.5065 106.249 74.1787 105.922 73.7743 105.922Z" fill="#42A3DB"/>
<path d="M70.0319 109.397H60.0576V110.225H70.0319V109.397Z" fill="#BEDDF4"/>
<path d="M57.4541 88.3864C57.4541 88.3864 55.1436 84.2784 55.4528 80.82C55.7456 77.3615 57.7145 74.8448 57.7145 74.8448L50.3761 70.0711C50.3761 70.0711 47.2194 74.8123 46.7964 79.0988C46.3733 83.3854 47.8378 87.9318 47.8378 87.9318L57.4541 88.3864Z" fill="white"/>
<path d="M57.6657 88.5163L47.7401 88.0454L47.7076 87.9642C47.7076 87.9642 46.2432 83.3367 46.6662 79.0826C47.0893 74.8123 50.2297 70.0548 50.2622 70.0061L50.3273 69.9087L57.8609 74.8285L57.7796 74.9259C57.7796 74.9259 55.827 77.4589 55.5341 80.8362C55.2412 84.2135 57.503 88.289 57.5192 88.3377L57.6169 88.5325L57.6657 88.5163ZM47.9191 87.8181L57.2426 88.2565C56.8033 87.4122 55.0623 83.84 55.3226 80.82C55.5829 77.7674 57.1613 75.3968 57.5355 74.8935L50.4086 70.2497C49.953 70.9479 47.3008 75.2507 46.9103 79.1151C46.5198 83.0282 47.7239 87.2011 47.9191 87.8343V87.8181Z" fill="#BEDDF4"/>
<path d="M60.3016 39.8216C60.3016 39.8216 61.0176 41.7538 60.6596 43.2151C60.3016 44.6927 59.2766 45.6344 59.2766 45.6344L62.1078 48.1836C62.1078 48.1836 63.7837 46.3489 64.2719 44.5303C64.7437 42.7118 64.4183 40.6497 64.4183 40.6497L60.3016 39.8054V39.8216Z" fill="white"/>
<path d="M62.1078 48.3298L59.1301 45.6344L59.2115 45.5695C59.2115 45.5695 60.2203 44.6115 60.562 43.1989C60.9199 41.77 60.2203 39.8703 60.204 39.8541L60.1389 39.6917L64.4834 40.5847V40.6497C64.4834 40.6497 64.8088 42.7605 64.3369 44.5628C63.8651 46.3813 62.2217 48.1836 62.1566 48.2486L62.0915 48.3135L62.1078 48.3298ZM59.4067 45.6344L62.1078 48.0538C62.4169 47.6965 63.7674 46.0891 64.1742 44.5141C64.5973 42.9066 64.3857 41.1043 64.3369 40.7309L60.4481 39.9353C60.6108 40.4386 61.0664 41.9811 60.7572 43.2314C60.4481 44.4979 59.6671 45.3747 59.423 45.6344H59.4067Z" fill="#BEDDF4"/>
<path d="M53.2073 59.9717C53.2073 59.9717 55.0134 63.3327 54.9321 65.8495C54.8344 68.3662 53.4351 69.8925 53.4351 69.8925L59.5694 70.4283C59.5694 70.4283 61.7986 67.6031 60.7735 63.1866C60.1064 60.2964 58.1863 58.2506 58.1863 58.2506L53.2236 59.9555L53.2073 59.9717Z" fill="white"/>
<path d="M59.6182 70.5257L53.2399 69.9737L53.37 69.8275C53.37 69.8275 54.7531 68.3012 54.8507 65.8332C54.9483 63.3652 53.1585 60.0366 53.1422 60.0042L53.0934 59.9067L58.2189 58.1369L58.2677 58.1856C58.2677 58.1856 60.204 60.2802 60.8874 63.1541C61.9125 67.5706 59.6996 70.4608 59.667 70.477L59.6345 70.5095L59.6182 70.5257ZM53.6141 69.8275L59.5206 70.3471C59.7809 69.9899 61.6196 67.2621 60.6759 63.2191C60.0738 60.6212 58.4304 58.689 58.1538 58.3805L53.3538 60.0366C53.6466 60.6212 55.1111 63.5925 55.0297 65.8657C54.9483 67.9603 53.9721 69.3891 53.6304 69.8275H53.6141Z" fill="#BEDDF4"/>
<path d="M42.0289 61.0271L50.5388 63.4951C50.5388 63.4951 49.8554 59.0949 52.4263 55.0194C54.5253 51.6908 57.5355 49.5313 57.5355 49.5313L47.7727 47.5179C47.7727 47.5179 44.6974 50.1808 42.9726 53.7692C41.2479 57.3738 42.0289 61.0271 42.0289 61.0271Z" fill="white"/>
<path d="M50.7015 63.6575L41.9313 61.1245V61.0596C41.9313 61.0596 41.1502 57.3251 42.8587 53.7205C44.5672 50.1321 47.6588 47.453 47.6913 47.4205L47.7401 47.388L57.8284 49.4664L57.6006 49.6287C57.6006 49.6287 54.5904 51.8045 52.5239 55.0844C50.0019 59.0787 50.6527 63.4464 50.6527 63.4789L50.6853 63.6575H50.7015ZM42.1428 60.9297L50.4087 63.3165C50.311 62.4397 50.067 58.5428 52.3287 54.9382C54.086 52.1292 56.5267 50.1483 57.2589 49.58L47.8052 47.6316C47.431 47.9726 44.6486 50.5055 43.0865 53.8179C41.5408 57.0653 42.0452 60.4101 42.1428 60.9297Z" fill="#BEDDF4"/>
<path d="M39.1326 149.567L31.5664 141.709L31.5827 135.912L22.4056 136.188L23.1541 149.567H39.1326Z" fill="#142148"/>
<path d="M31.6478 114.122L21.2341 115.518L21.6409 122.76L31.6315 122.533L31.6478 114.122Z" fill="#E38B6D"/>
<path d="M31.6315 122.533L21.6409 122.76L22.4057 136.188L31.5827 135.912L31.6315 122.533Z" fill="#F9B385"/>
<path d="M31.3665 141.292L27.4355 143.138L27.8304 143.975L31.7614 142.129L31.3665 141.292Z" fill="white"/>
<path d="M53.6467 111.735L43.6235 111.345L42.3055 119.009L51.9056 120.422L53.6467 111.735Z" fill="#E38B6D"/>
<path d="M55.8921 141.79L49.709 131.382L50.5063 127.404C47.789 126.787 43.5747 125.829 41.2154 125.293L39.1326 137.39L55.8921 141.774V141.79Z" fill="#142148"/>
<path d="M51.9056 120.422L42.2893 119.026L41.2154 125.293C43.5747 125.813 47.789 126.771 50.5063 127.404L51.9056 120.422Z" fill="#F9B385"/>
<path d="M49.579 130.935L45.6776 132.246L45.9735 133.123L49.8749 131.812L49.579 130.935Z" fill="white"/>
<path d="M60.3668 112.888C60.3668 112.888 56.2013 118.133 48.4724 116.428C40.7598 114.739 42.1428 119.204 37.8147 120.13C33.4865 121.055 21.4457 113.505 17.4266 120.584C17.4266 120.584 15.0348 93.7446 16.1249 76.777C16.4178 72.1981 16.971 68.3175 17.8822 65.8982L36.3665 65.6384L40.4343 65.5897C40.4343 65.5897 40.4343 65.6709 40.4832 65.8495C40.5482 66.2067 40.6947 66.9536 40.9225 68.0252C42.4357 75.0234 47.7239 95.758 60.3505 112.888H60.3668Z" fill="#F9C243"/>
<path d="M40.9387 68.0252C36.8058 70.753 28.1983 75.4293 16.1412 76.777C16.4341 72.1981 16.9873 68.3175 17.8985 65.8982L36.3827 65.6384L40.4994 65.8495C40.5645 66.2067 40.7109 66.9536 40.9387 68.0252Z" fill="#E69C30"/>
<path d="M20.509 90.9751L24.9614 75.8987L4.74935 69.9549L0.297003 85.0313L20.509 90.9751Z" fill="white"/>
<path d="M20.6646 91.2603L0 85.1877L4.58852 69.6652L25.2531 75.7378L20.6646 91.2603ZM0.569498 84.863L20.3392 90.6758L24.6674 76.0463L4.89768 70.2335L0.569498 84.863Z" fill="#8FA4D4"/>
<path d="M20.9906 77.0458L19.6659 81.5313L20.1029 81.6599L21.4276 77.1743L20.9906 77.0458Z" fill="#8FA4D4"/>
<path d="M18.2092 76.2289L15.0171 87.0377L15.4541 87.1663L18.6462 76.3574L18.2092 76.2289Z" fill="#8FA4D4"/>
<path d="M15.4427 75.3997L12.2507 86.2086L12.6877 86.3371L15.8798 75.5282L15.4427 75.3997Z" fill="#8FA4D4"/>
<path d="M12.6718 74.6023L9.47974 85.4112L9.91675 85.5397L13.1088 74.7308L12.6718 74.6023Z" fill="#8FA4D4"/>
<path d="M9.89338 73.793L7.45563 82.0476L7.89265 82.1761L10.3304 73.9215L9.89338 73.793Z" fill="#8FA4D4"/>
<path d="M52.1334 38.3278C52.1334 38.3278 52.7029 32.8397 53.2236 32.9209C53.7443 33.0021 53.6792 34.3497 53.6792 34.3497C53.6792 34.3497 54.8833 31.281 55.4365 31.2972C55.9897 31.2972 55.4365 32.5474 55.4365 32.5474C55.4365 32.5474 56.0548 31.2972 56.5267 31.3946C56.9823 31.492 56.608 32.5474 56.608 32.5474C56.608 32.5474 57.0962 31.5245 57.5681 31.7031C58.0399 31.8817 57.747 32.7261 57.747 32.7261C57.747 32.7261 58.0074 32.0603 58.4467 32.4987C58.886 32.9371 56.6406 39.367 56.6406 39.367L53.4839 40.26L52.1822 38.2953L52.1334 38.3278Z" fill="#F9B385"/>
<path d="M56.6243 39.3995C56.6243 39.3995 53.8582 50.7329 46.8941 54.0452C45.2669 54.8246 43.3957 55.1656 41.2967 54.8083L40.0438 52.6001L31.8756 38.1005L34.7231 37.11C34.7231 37.11 41.134 39.4969 44.5998 44.8064C44.5998 44.8064 47.8378 44.4979 52.166 38.0355L56.6081 39.4157L56.6243 39.3995Z" fill="#4C6AB3"/>
<path d="M46.8941 54.0452C45.2669 54.8246 43.3957 55.1655 41.2967 54.8083L40.0438 52.6001L40.3692 47.1932C40.3692 47.1932 45.0879 49.8723 46.8941 54.0452Z" fill="#142148"/>
<path d="M18.1426 75.9002C18.1426 75.9002 17.5243 81.2259 16.971 81.1447C16.4178 81.0473 16.4829 79.7159 16.4829 79.7159C16.4829 79.7159 15.1975 82.7846 14.5954 82.7846C13.9934 82.7846 14.6117 81.5344 14.6117 81.5344C14.6117 81.5344 13.9446 82.7846 13.4564 82.7035C12.9683 82.606 13.3751 81.5506 13.3751 81.5506C13.3751 81.5506 12.8544 82.5736 12.35 82.3949C11.8456 82.2163 12.171 81.372 12.171 81.372C12.171 81.372 11.8944 82.0377 11.4388 81.5993C10.9669 81.1609 13.3913 74.7149 13.3913 74.7149L16.7595 73.8056L18.1263 75.9326L18.1426 75.9002Z" fill="#F9B385"/>
<path d="M29.2234 37.2075C15.5229 38.8636 11.4876 57.8122 13.0496 75.6079L18.1426 75.9164C18.1426 75.9164 18.9887 58.5104 26.0179 50.1808L31.8919 38.0843L29.2234 37.1912V37.2075Z" fill="#4C6AB3"/>
<path d="M31.8756 38.0843L41.378 44.4816C41.378 44.4816 43.9977 56.7243 43.8513 67.5868C43.8513 67.5868 25.4809 74.3739 16.369 67.2783L23.5446 44.0108L31.8756 38.0843Z" fill="#4C6AB3"/>
<path d="M37.3265 27.0106C38.2051 23.9419 35.1136 20.3697 29.2071 23.406C29.2071 23.406 23.3331 24.4127 24.3745 34.5771L30.5576 34.8044L37.3265 27.0106Z" fill="#142148"/>
<path d="M30.46 23.2112C31.2735 19.98 27.7427 19.4605 27.1569 21.4414C27.0755 21.7012 25.367 20.7594 24.8789 22.3019C24.3257 24.0718 26.2457 25.2408 28.4098 24.8024L30.46 23.2112Z" fill="#142148"/>
<path d="M34.7393 31.0049V37.0938L32.0708 40.8283L29.2233 37.2075L29.3698 30.8913L34.7393 31.0049Z" fill="#F9B385"/>
<path d="M34.7393 33.0833V36.9964C32.8356 36.1683 32.0057 33.6678 32.0057 33.6678L34.7393 33.0833Z" fill="#142148"/>
<path d="M37.3265 27.0106C37.3265 27.0106 39.2302 37.0126 32.0057 33.6516L29.6301 30.94L31.1108 25.4519L34.902 24.5264L37.3265 27.0106Z" fill="#F9B385"/>
<path d="M37.3265 27.0106C37.3265 27.0106 35.8132 24.6563 33.9258 25.7929C32.0383 26.9295 32.1359 30.9238 30.1671 29.9171C28.1982 28.9104 29.3372 25.8416 29.3372 25.8416L32.2335 23.6496L35.4715 24.023L37.3265 27.0269V27.0106Z" fill="#142148"/>
<path d="M30.8505 29.6086C31.2898 30.3555 31.0945 31.2647 30.4437 31.6382C29.7928 32.0116 28.9142 31.7194 28.4748 30.9725C28.0355 30.2256 28.2308 29.3163 28.8816 28.9428C29.5325 28.5694 30.4111 28.8617 30.8505 29.6086Z" fill="#F9B385"/>
<path d="M32.1197 45.0337C32.6319 45.0337 33.0471 44.6193 33.0471 44.1082C33.0471 43.597 32.6319 43.1827 32.1197 43.1827C31.6074 43.1827 31.1922 43.597 31.1922 44.1082C31.1922 44.6193 31.6074 45.0337 32.1197 45.0337Z" fill="#142148"/>
<path d="M18.9073 68.8371L18.4517 68.7559C18.4517 68.7559 19.1351 65.2974 20.2741 61.4493C21.8036 56.2697 23.3982 52.8599 25.0091 51.3011L25.3345 51.6259C21.6084 55.2305 18.9399 68.7072 18.9236 68.8371H18.9073Z" fill="#142148"/>
<path d="M17.1988 57.9258C16.3527 57.2926 14.3514 57.3575 14.3351 57.3575V56.9029C14.3351 56.9029 16.4992 56.838 17.4755 57.5686L17.1988 57.9421V57.9258Z" fill="#142148"/>
<path d="M239.758 135.474L239.612 144.242L237.594 149.567H248.48L247.862 135.23L239.758 135.474Z" fill="#142148"/>
<path d="M223.747 136.383V143.673L215.172 149.567H232.42L231.379 135.587L223.747 136.383Z" fill="#142148"/>
<path d="M224.029 143.303L223.468 144.039L226.057 146.006L226.619 145.27L224.029 143.303Z" fill="white"/>
<path d="M238.213 64.9727L238.164 65.1513L236.618 71.2077L233.266 84.3921C232.794 86.5029 232.453 88.7598 232.192 91.1467C230.565 106.15 232.664 125.342 233.771 133.606C234.063 135.782 232.355 137.698 230.175 137.698H224.073C222.674 137.698 221.388 136.886 220.786 135.62C213.008 119.367 214.278 95.0923 215.84 89.1658C218.313 79.7646 220.005 65.7521 220.005 65.7521L225.196 65.5247L238.229 64.9727H238.213Z" fill="#4C6AB3"/>
<path d="M249.896 133.46C249.847 135.555 248.138 137.211 246.039 137.211H240.816C238.88 137.211 237.253 135.782 236.992 133.866C236 126.283 233.575 107.189 232.192 91.1304C231.476 82.7035 231.053 75.1208 231.265 70.4933C231.346 68.7397 231.525 67.392 231.818 66.5964L238.164 65.1513L244.624 63.6737C244.624 63.6737 246.218 65.3786 247.699 74.4551C249.228 83.9375 250.611 101.441 249.879 133.444L249.896 133.46Z" fill="#4C6AB3"/>
<path d="M231.541 103.974C231.249 98.0474 231.444 93.0139 232.095 88.5488C232.306 87.1199 233.071 85.8047 234.226 84.8955L238.571 81.4532L238.864 81.8104L234.519 85.2527C233.445 86.097 232.746 87.2985 232.55 88.6137C231.899 93.0464 231.72 98.0636 231.997 103.958H231.541V103.974Z" fill="#142148"/>
<path d="M218.524 105.89L218.459 105.435C221.372 105.078 223.861 105.029 226.074 105.273L226.025 105.727C223.845 105.468 221.388 105.533 218.508 105.874L218.524 105.89Z" fill="#142148"/>
<path d="M239.368 104.802L239.303 104.347C242.215 103.99 244.705 103.941 246.918 104.185L246.869 104.64C244.689 104.38 242.232 104.445 239.352 104.786L239.368 104.802Z" fill="#142148"/>
<path d="M226.579 132.21C222.625 132.21 219.68 131.512 219.631 131.496L219.745 131.041C219.745 131.041 226.546 132.665 233.364 130.943L233.478 131.398C231.07 131.999 228.678 132.21 226.579 132.21Z" fill="#142148"/>
<path d="M242.899 132.226C242.281 132.226 241.678 132.21 241.142 132.178C238.587 132.048 236.634 131.674 236.602 131.658L236.683 131.203C236.683 131.203 244.38 132.665 249.456 130.797L249.619 131.236C247.52 132.015 245.014 132.226 242.883 132.226H242.899Z" fill="#142148"/>
<path d="M247.699 74.4713C244.754 72.8963 240.67 71.8734 236.618 71.2077C234.796 70.8992 232.973 70.6719 231.265 70.4933C225.846 69.9412 221.486 69.9412 221.486 69.9412L225.163 65.5247L238.196 64.9727L238.148 65.1513L244.607 63.6737C244.607 63.6737 246.202 65.3786 247.683 74.4551L247.699 74.4713Z" fill="#243F87"/>
<path d="M230.207 30.1931H224.854V39.1234H230.207V30.1931Z" fill="#E38B6D"/>
<path d="M227.376 33.8951C227.376 33.8951 226.839 35.8436 224.87 37.175V33.2781L227.376 33.8951Z" fill="#142148"/>
<path d="M222.104 25.6305L221.73 29.3812C221.73 29.3812 219.972 31.7356 221.079 31.7356C222.25 31.7356 222.071 32.2065 222.071 32.2065C222.071 32.2065 221.421 37.0938 227.392 33.8951L228.661 26.5722L222.12 25.6305H222.104Z" fill="#E38B6D"/>
<path d="M222.104 25.6305C222.104 25.6305 223.731 25.4194 224.154 27.1405C224.577 28.8617 225.147 29.9171 226.579 28.7155L228.157 26.1338L225.456 25.0135L222.12 25.6467L222.104 25.6305Z" fill="#142148"/>
<path d="M222.104 25.6305C222.104 24.4127 223.552 21.4901 228.124 22.2695C232.501 23.0164 233.185 29.1215 230.923 31.9142C230.923 31.9142 229.768 33.7165 228.222 30.4042L225.57 26.832L225 25.7117L222.104 25.6143V25.6305Z" fill="#142148"/>
<path d="M228.45 30.2093C228.011 30.9562 227.132 31.2647 226.481 30.875C225.83 30.5016 225.651 29.5923 226.074 28.8454C226.514 28.0985 227.392 27.79 228.043 28.1797C228.694 28.5532 228.873 29.4624 228.45 30.2093Z" fill="#E38B6D"/>
<path d="M238.603 37.175C248.87 40.4873 256.974 54.3537 247.487 54.581C237.985 54.8083 232.209 46.0241 232.209 46.0241L238.619 37.1588L238.603 37.175Z" fill="#E69C30"/>
<path d="M193.174 47.7453C193.174 47.7453 188.097 45.537 187.934 46.0241C187.755 46.5112 188.959 47.1283 188.959 47.1283C188.959 47.1283 185.689 46.6574 185.428 47.1445C185.152 47.6316 186.535 47.7453 186.535 47.7453C186.535 47.7453 185.135 47.6641 184.989 48.1187C184.843 48.5733 185.965 48.7682 185.965 48.7682C185.965 48.7682 184.826 48.687 184.761 49.1741C184.696 49.6775 185.575 49.8236 185.575 49.8236C185.575 49.8236 184.875 49.7262 185.038 50.3107C185.217 50.9115 191.921 52.1292 191.921 52.1292L194.264 49.8236L193.19 47.729L193.174 47.7453Z" fill="#E38B6D"/>
<path d="M243.875 68.0902L220.949 70.5907C219.012 70.8018 217.353 69.2592 217.402 67.3108L217.694 57.8771L217.825 53.5256V53.412C217.825 53.412 217.662 53.6068 217.337 53.9153C217.125 54.1102 216.832 54.3537 216.474 54.6297C213.431 56.9191 205.312 60.8647 191.904 52.1292L193.174 47.729L207.655 48.3136C207.655 48.3136 214.147 43.0852 219.907 39.4969C223.666 37.1425 228.027 35.8436 232.469 35.9735C234.47 36.0222 236.634 36.3469 238.619 37.1588C243.501 39.1721 245.925 57.1627 246.723 64.5668C246.918 66.3204 245.649 67.8953 243.891 68.0739L243.875 68.0902Z" fill="#F9C243"/>
<path d="M206.044 52.5839C205.621 49.7099 207.427 48.2161 207.492 48.1512L207.785 48.5084C207.785 48.5084 207.362 48.8656 206.988 49.5313C206.5 50.4244 206.337 51.4311 206.484 52.5189L206.028 52.5839H206.044Z" fill="#E69C30"/>
<path d="M219.875 51.8045C219.875 51.8045 219.728 55.5228 217.694 57.8771L217.825 53.5256C218.589 52.9086 219.468 52.178 219.875 51.8045Z" fill="#E69C30"/>
<path d="M213.09 56.773L212.992 56.3184C216.344 55.6527 220.851 50.0509 220.9 49.986L221.258 50.2782C221.258 50.2782 220.086 51.7396 218.524 53.2496C216.393 55.2955 214.57 56.4808 213.09 56.773Z" fill="#E69C30"/>
<path d="M77.1425 23.6009L76.5242 22.9352H76.6869L77.1425 23.4223L77.5981 22.9352H77.7608L77.1425 23.6009ZM75.1737 24.64V24.8187L77.1425 26.9457L79.0951 24.8187V24.64L77.1425 26.7671L75.1737 24.64ZM75.1737 23.2924V23.471L77.1425 25.598L79.0951 23.471V23.2924L77.1425 25.4194L75.1737 23.2924ZM75.4177 22.9352H75.255L77.1425 24.9323L79.03 22.9352H78.8673L77.1425 24.7537L75.4177 22.9352ZM75.1737 23.9581V24.1367L77.1425 26.2637L79.0951 24.1367V23.9581L77.1425 26.0851L75.1737 23.9581ZM77.1425 24.1042L76.0523 22.9514H75.8896L77.1425 24.2828L78.3954 22.9514H78.2327L77.1425 24.1042ZM75.1737 25.3058V25.4519L77.1425 27.5789L79.0951 25.4519V25.3058L77.1425 27.4328L75.1737 25.3058Z" fill="white"/>
<path d="M83.6836 26.897H82.7724L81.6334 23.5684H82.5283L83.0978 25.6467C83.1629 25.9065 83.2117 26.1826 83.2117 26.1826C83.2117 26.1826 83.2605 25.9065 83.3256 25.6467L83.8951 23.5684H84.79L83.6673 26.897H83.6836ZM86.5799 26.9619C85.7175 26.9619 85.2619 26.5885 85.2619 25.7279V23.5684H86.0429V25.7442C86.0429 26.1014 86.2219 26.2637 86.5636 26.2637C86.7589 26.2637 86.9379 26.2313 87.0192 26.1826V23.5522H87.8165V26.7021C87.5399 26.8483 87.0518 26.9457 86.5636 26.9457L86.5799 26.9619ZM90.5989 26.897V24.6238C90.5989 24.1367 90.306 23.812 89.7528 23.812C89.4436 23.812 89.167 23.8769 88.988 23.9419V26.897H88.6463V23.747C88.9392 23.6171 89.3297 23.5197 89.7528 23.5197C90.5338 23.5197 90.9569 23.9256 90.9569 24.6238V26.9132H90.6152L90.5989 26.897ZM94.26 25.0784L92.0633 25.4194C92.1122 26.2313 92.5352 26.6534 93.2023 26.6534C93.5115 26.6534 93.8532 26.5722 94.0484 26.4423L94.1623 26.7346C93.9508 26.8645 93.5766 26.9619 93.1861 26.9619C92.2911 26.9619 91.7216 26.3612 91.7216 25.2408C91.7216 24.2179 92.226 23.5197 93.0559 23.5197C93.7881 23.5197 94.26 24.023 94.26 24.8998C94.26 24.9648 94.26 25.0135 94.26 25.0947V25.0784ZM93.0559 23.7957C92.4376 23.7957 92.0633 24.3315 92.0471 25.1434L93.9345 24.8511C93.9345 24.1205 93.5766 23.7957 93.0559 23.7957ZM96.0498 26.9132C95.5942 26.9132 95.2525 26.6372 95.2525 26.0851V23.8444H94.7644V23.5684H95.2525V22.7403L95.578 22.6104V23.5684H96.2939V23.8444H95.578V26.0851C95.578 26.4586 95.822 26.6047 96.0986 26.6047C96.1637 26.6047 96.2288 26.6047 96.2939 26.5722V26.8807C96.2939 26.8807 96.1637 26.9132 96.0498 26.9132Z" fill="white"/>
</g>
<defs>
<clipPath id="clip0_2001_244">
<rect width="260" height="148" fill="white" transform="translate(0 6)"/>
</clipPath>
</defs>
</svg>
