<svg width="260" height="160" viewBox="0 0 260 160" fill="none" xmlns="http://www.w3.org/2000/svg">
<g clip-path="url(#clip0_2002_1205)">
<path d="M62.2268 50.2953C62.7994 49.7558 62.7504 48.5951 62.5213 47.9739C61.6706 45.7015 60.0509 44.786 56.2553 44.786C56.1244 44.786 55.9935 44.786 55.8626 44.786C55.8299 42.4482 53.3104 40.4374 51.5434 40.2575C46.3899 39.7017 35.412 39.4728 32.0091 40.5681C30.3076 41.1076 28.7533 42.4809 28.7533 44.835C28.7533 44.8841 28.7533 44.9331 28.7533 44.9822C28.328 44.9168 27.8699 44.8841 27.4118 44.8841C23.9761 44.8841 21.1948 46.9112 21.1948 49.4289C21.1948 49.7722 21.2439 50.0991 21.3421 50.4261C21.293 50.4261 21.2439 50.4261 21.1948 50.4261C21.0312 50.4261 20.884 50.4261 20.7204 50.4261H20.3768C20.0987 50.4261 19.8369 50.4588 19.5915 50.5405C16.0086 51.08 13.3254 53.4178 13.3254 56.2134C13.3254 59.4176 15.9758 61.9352 22.4546 61.9352H62.4722C65.957 61.9352 68.2638 58.5185 68.2638 56.0989C68.2638 53.1072 65.6134 50.655 62.2105 50.3117L62.2268 50.2953Z" fill="white"/>
<path d="M235.5 86.997C236.073 86.4575 236.024 85.2968 235.795 84.6755C234.944 82.4031 233.324 81.4876 229.529 81.4876C229.398 81.4876 229.267 81.4876 229.136 81.4876C229.103 79.1498 226.584 77.139 224.817 76.9592C219.663 76.4034 208.686 76.1745 205.283 77.2698C203.581 77.8093 202.027 79.1825 202.027 81.5367C202.027 81.5857 202.027 81.6348 202.027 81.6838C201.602 81.6184 201.143 81.5857 200.685 81.5857C197.25 81.5857 194.468 83.6129 194.468 86.1305C194.468 86.4738 194.517 86.8172 194.616 87.1278C194.567 87.1278 194.517 87.1278 194.468 87.1278C194.305 87.1278 194.158 87.1278 193.994 87.1278H193.65C193.372 87.1278 193.11 87.1605 192.865 87.2422C189.282 87.7817 186.599 90.1195 186.599 92.915C186.599 96.1193 189.249 98.6369 195.728 98.6369H235.746C239.231 98.6369 241.537 95.2201 241.537 92.8006C241.537 89.8089 238.887 87.3566 235.484 87.0133L235.5 86.997Z" fill="white"/>
<path d="M139.824 110.408H118.032V129.535H139.824V110.408Z" fill="#2E4D80"/>
<path d="M169.437 128.946H88.4199V135.028H169.437V128.946Z" fill="#4E74A9"/>
<path d="M169.437 133.295H88.4199V135.028H169.437V133.295Z" fill="#2E4D80"/>
<path d="M212.858 17.9586H44.9993V111.83H212.858V17.9586Z" fill="#4E74A9"/>
<path d="M207.573 21.2609H50.2837V102.332H207.573V21.2609Z" fill="#BCCFEB"/>
<path d="M207.786 21.2609H50.4637V28.4704H207.786V21.2609Z" fill="#647CBD"/>
<path d="M85.0988 31.2006H53.9321V99.2091H85.0988V31.2006Z" fill="#E3ECF8"/>
<path d="M83.2827 33.2768H55.7481V35.353H83.2827V33.2768Z" fill="white"/>
<path d="M83.2827 37.1677H55.7481V39.2439H83.2827V37.1677Z" fill="white"/>
<path d="M83.2827 69.6188H55.7481V71.6951H83.2827V69.6188Z" fill="white"/>
<path d="M83.2827 73.8367H55.7481V74.9974H83.2827V73.8367Z" fill="white"/>
<path d="M83.2827 76.1744H55.7481V77.3352H83.2827V76.1744Z" fill="white"/>
<path d="M83.2827 78.7575H55.7481V79.9182H83.2827V78.7575Z" fill="white"/>
<path d="M79.7816 43.6579H59.2656V64.4201H79.7816V43.6579Z" fill="white"/>
<path d="M60.9344 83.5475V93.1112L69.1964 88.3212L60.9344 83.5475Z" fill="#BCCFEB"/>
<path d="M71.3723 83.5475V93.1112L79.6343 88.3212L71.3723 83.5475Z" fill="#BCCFEB"/>
<path d="M203.532 31.7237H88.469V98.6859H203.532V31.7237Z" fill="#8DB0DD"/>
<path d="M109.509 43.6579C109.509 48.1046 105.909 51.7012 101.459 51.7012C97.0091 51.7012 93.4099 48.1046 93.4099 43.6579C93.4099 39.2112 97.0091 35.6146 101.459 35.6146C105.909 35.6146 109.509 39.2112 109.509 43.6579Z" fill="#E3ECF8"/>
<path d="M130.548 43.6579C130.548 48.1046 126.949 51.7012 122.499 51.7012C118.049 51.7012 114.449 48.1046 114.449 43.6579C114.449 39.2112 118.049 35.6146 122.499 35.6146C126.949 35.6146 130.548 39.2112 130.548 43.6579Z" fill="#E3ECF8"/>
<path d="M151.588 43.6579C151.588 48.1046 147.988 51.7012 143.538 51.7012C139.088 51.7012 135.489 48.1046 135.489 43.6579C135.489 39.2112 139.088 35.6146 143.538 35.6146C147.988 35.6146 151.588 39.2112 151.588 43.6579Z" fill="#E3ECF8"/>
<path d="M168.504 38.5573H157.297V40.1103H168.504V38.5573Z" fill="#BCCFEB"/>
<path d="M184.21 38.5573H173.003V40.1103H184.21V38.5573Z" fill="#BCCFEB"/>
<path d="M199.9 38.5573H188.693V40.1103H199.9V38.5573Z" fill="#BCCFEB"/>
<path d="M145.403 58.453H93.4099V60.5292H145.403V58.453Z" fill="#E3ECF8"/>
<path d="M138.794 63.1286H93.4099V64.9433H138.794V63.1286Z" fill="#E3ECF8"/>
<path d="M178.092 67.8042H93.4099V70.142H178.092V67.8042Z" fill="#E3ECF8"/>
<path d="M114.482 72.725H93.4099V75.3243H114.482V72.725Z" fill="#BCCFEB"/>
<path d="M151.653 79.2152H93.4099V82.3377H151.653V79.2152Z" fill="#E3ECF8"/>
<path d="M120.208 85.967H93.4099V86.7517H120.208V85.967Z" fill="#BCCFEB"/>
<path d="M140.577 90.6426H93.4099V93.7651H140.577V90.6426Z" fill="#BCCFEB"/>
<path d="M197.822 54.039H184.309V93.7487H197.822V54.039Z" fill="#BCCFEB"/>
<g style="mix-blend-mode:multiply" opacity="0.5">
<path d="M196.17 101.857C189.937 100.353 183.998 97.9339 178.19 95.2528C172.365 92.5553 166.525 89.8579 160.782 86.9643C130.025 71.5152 102.686 48.497 81.5158 21.2609H50.2674V102.332H198.28C197.577 102.184 196.857 102.021 196.153 101.857H196.17Z" fill="#BCCFEB"/>
</g>
<path d="M179.957 23.239C180.677 22.5033 180.611 20.9012 180.317 20.0511C179.27 16.9123 177.257 15.6698 172.545 15.6698C172.382 15.6698 172.218 15.6698 172.055 15.6698C172.022 12.4492 168.881 9.68636 166.688 9.42479C160.291 8.67277 146.647 8.34581 142.409 9.84984C140.283 10.6019 138.368 12.4819 138.368 15.7352C138.368 15.8006 138.368 15.866 138.368 15.9314C137.828 15.8333 137.272 15.7842 136.716 15.7842C132.446 15.7842 128.994 18.5798 128.994 22.0456C128.994 22.5197 129.059 22.9774 129.19 23.4188C129.125 23.4188 129.059 23.4188 128.994 23.4188C128.798 23.4188 128.601 23.4188 128.405 23.4188H127.979C127.636 23.4188 127.309 23.4679 126.998 23.566C122.548 24.318 119.21 27.5386 119.21 31.3804C119.21 35.7944 122.499 39.2602 130.564 39.2602H180.284C184.619 39.2602 187.482 34.5683 187.482 31.2169C187.482 27.0972 184.194 23.7131 179.957 23.239Z" fill="#E1EFFF"/>
<path d="M129.975 15.2284L128.389 12.4165C128.012 11.7626 127.178 11.5501 126.491 11.9261L125.575 12.4329C124.986 12.7598 124.282 12.6944 123.791 12.2857C123.415 11.9751 123.022 11.6808 122.63 11.4029C122.09 11.0433 121.861 10.3893 122.041 9.7681L122.335 8.78721C122.564 8.05154 122.139 7.31587 121.386 7.11969L118.196 6.30228C117.46 6.1061 116.674 6.54751 116.462 7.28317L116.167 8.26407C115.987 8.8853 115.415 9.34305 114.76 9.39209C114.269 9.42479 113.762 9.49018 113.271 9.58827C112.617 9.71906 111.979 9.42479 111.668 8.86895L111.177 8.0025C110.801 7.34857 109.967 7.13604 109.279 7.51205L106.351 9.16322C105.664 9.53923 105.418 10.3893 105.778 11.0433L106.269 11.9097C106.58 12.4656 106.498 13.1685 106.056 13.659C105.713 14.035 105.402 14.4273 105.124 14.8197C104.731 15.3592 104.061 15.6044 103.422 15.4409L102.424 15.1794C101.672 14.9995 100.903 15.4246 100.69 16.1602L99.7414 19.3154C99.5123 20.0348 99.9377 20.7868 100.69 20.983L101.688 21.2445C102.326 21.408 102.768 21.9475 102.801 22.5851C102.817 23.0592 102.866 23.5496 102.964 24.0237C103.079 24.6613 102.752 25.2989 102.179 25.6259L101.263 26.1326C100.576 26.5087 100.33 27.3588 100.707 27.9963L102.294 30.8082C102.67 31.4622 103.521 31.6747 104.191 31.2987L105.108 30.7919C105.68 30.4649 106.4 30.5303 106.891 30.939C107.267 31.2496 107.643 31.5439 108.052 31.8218C108.592 32.1815 108.821 32.8354 108.625 33.4566L108.331 34.4375C108.118 35.1732 108.543 35.9089 109.279 36.105L112.47 36.9225C113.206 37.1186 113.991 36.6772 114.204 35.9416L114.498 34.9607C114.695 34.3394 115.251 33.8817 115.905 33.8326C116.396 33.7999 116.903 33.7346 117.394 33.6365C118.049 33.5057 118.687 33.7999 119.014 34.3558L119.505 35.2222C119.881 35.8762 120.732 36.0887 121.403 35.7127L124.331 34.0615C125.018 33.6855 125.264 32.8354 124.887 32.1815L124.397 31.315C124.086 30.7592 124.168 30.0562 124.609 29.5658C124.953 29.1898 125.264 28.7974 125.558 28.3887C125.951 27.8492 126.622 27.604 127.26 27.7675L128.258 28.0127C128.994 28.2089 129.779 27.7675 129.992 27.0318L130.941 23.8766C131.17 23.1409 130.744 22.4053 129.992 22.2091L128.994 21.9475C128.356 21.784 127.914 21.2445 127.881 20.607C127.849 20.1329 127.816 19.6424 127.718 19.1683C127.603 18.5307 127.93 17.8932 128.503 17.5662L129.419 17.0594C130.09 16.667 130.352 15.8333 129.975 15.1957V15.2284ZM119.472 27.7021C115.529 30.3341 110.277 28.9936 108.363 24.8738C106.858 21.6369 108.069 17.6479 111.161 15.5717C115.087 12.9397 120.339 14.2802 122.253 18.4163C123.758 21.6532 122.548 25.6422 119.456 27.7184L119.472 27.7021Z" fill="#FEBF10"/>
<path d="M142.655 21.6369L141.591 19.7732C141.346 19.3482 140.773 19.201 140.332 19.4463L139.726 19.7896C139.334 20.0021 138.859 19.9694 138.548 19.6915C138.303 19.479 138.041 19.2828 137.779 19.1029C137.419 18.8577 137.272 18.4327 137.387 18.0076L137.583 17.3537C137.73 16.8632 137.452 16.3728 136.961 16.242L134.835 15.7025C134.344 15.5717 133.82 15.866 133.673 16.3564L133.477 17.0104C133.346 17.4354 132.969 17.7297 132.528 17.7624C132.2 17.7787 131.873 17.8278 131.53 17.8932C131.104 17.9749 130.679 17.7787 130.466 17.4191L130.139 16.8305C129.894 16.4055 129.321 16.2584 128.879 16.5036L126.932 17.5989C126.474 17.8605 126.311 18.4163 126.556 18.8414L126.883 19.4136C127.096 19.7896 127.031 20.2473 126.736 20.5743C126.507 20.8195 126.311 21.0811 126.114 21.359C125.853 21.7187 125.411 21.8821 124.986 21.7677L124.331 21.6042C123.84 21.4734 123.317 21.7677 123.17 22.2581L122.548 24.3507C122.401 24.8412 122.679 25.3316 123.17 25.4624L123.824 25.6259C124.249 25.7403 124.544 26.0836 124.56 26.525C124.56 26.8356 124.609 27.1626 124.658 27.4896C124.724 27.9146 124.511 28.3397 124.135 28.5522L123.529 28.8955C123.071 29.1571 122.908 29.7129 123.153 30.138L124.217 32.0017C124.462 32.4267 125.035 32.5739 125.476 32.3286L126.082 31.9853C126.474 31.7728 126.949 31.8055 127.26 32.0834C127.505 32.2959 127.767 32.4921 128.029 32.6719C128.389 32.9172 128.536 33.3422 128.421 33.7673L128.225 34.4212C128.078 34.9116 128.356 35.4021 128.863 35.5329L130.99 36.0724C131.481 36.2032 132.004 35.9089 132.151 35.4184L132.348 34.7645C132.479 34.3558 132.855 34.0452 133.28 34.0125C133.607 33.9798 133.935 33.9471 134.278 33.8817C134.704 33.8 135.145 33.9798 135.358 34.3558L135.685 34.928C135.931 35.3531 136.503 35.5002 136.945 35.255L138.892 34.1596C139.35 33.8981 139.514 33.3422 139.268 32.9172L138.941 32.345C138.728 31.969 138.794 31.5112 139.088 31.1843C139.317 30.939 139.53 30.6775 139.71 30.3995C139.972 30.0399 140.43 29.8764 140.839 29.9908L141.493 30.1543C141.984 30.2851 142.508 29.9908 142.655 29.5004L143.277 27.4078C143.424 26.9174 143.146 26.4269 142.655 26.2961L142 26.1327C141.575 26.0346 141.281 25.6749 141.264 25.2335C141.248 24.9229 141.215 24.5959 141.166 24.269C141.084 23.8439 141.297 23.4189 141.69 23.2063L142.295 22.863C142.737 22.6015 142.917 22.0456 142.671 21.6206L142.655 21.6369Z" fill="#446AB3"/>
<path d="M256 151.965C256 154.744 199.589 157 129.992 157C60.3945 157 4 154.744 4 151.965C4 149.186 60.4108 146.913 130.008 146.913C199.606 146.913 256.016 149.169 256.016 151.965H256Z" fill="#D3E2F4"/>
<path d="M60.9344 147.6C61.7851 148.908 63.4866 149.333 64.5664 150.461C64.6482 150.542 64.7136 150.624 64.7464 150.739C64.8118 150.968 64.6318 151.213 64.4028 151.294C64.1737 151.376 63.9283 151.344 63.6993 151.294C62.3741 151.098 61.0489 150.886 59.7401 150.69C59.5928 150.673 59.4456 150.641 59.3311 150.575C59.0529 150.412 58.9711 150.052 58.9057 149.741C58.7094 148.793 58.513 147.845 58.3331 146.897C59.2165 147.028 60.0836 147.224 60.9344 147.583" fill="#122444"/>
<path d="M57.7768 147.665C57.6623 147.665 57.5314 147.665 57.4169 147.665C56.0917 140.799 57.5805 133.279 55.699 126.494C55.11 124.385 54.2102 122.407 53.4086 120.396C50.8236 113.873 48.5659 105.111 48.0096 98.0157C50.6436 97.4108 53.2122 97.2473 55.7808 96.0703C60.5581 111.961 62.7504 130.156 62.8158 146.913C61.1634 147.322 59.4783 147.567 57.7768 147.665Z" fill="#647CBD"/>
<g style="mix-blend-mode:multiply" opacity="0.4">
<path d="M52.2142 109.656C54.292 112.942 55.4045 116.8 56.6316 120.478C59.5928 129.29 59.5601 138.772 59.3801 147.534C58.8566 147.6 58.3167 147.649 57.7932 147.665C57.6786 147.665 57.5478 147.665 57.4332 147.665C56.108 140.799 57.5968 133.279 55.7154 126.494C55.1264 124.385 54.2266 122.407 53.4249 120.396C51.7562 116.195 50.4964 111.797 49.662 107.301C50.7091 107.792 51.5762 108.609 52.2306 109.656H52.2142Z" fill="#647CBD"/>
</g>
<path d="M41.629 148.352C42.4798 149.66 44.1813 150.085 45.261 151.213C45.3428 151.294 45.4083 151.376 45.441 151.491C45.5064 151.72 45.3265 151.965 45.0974 152.046C44.8684 152.128 44.623 152.096 44.3939 152.046C43.0687 151.85 41.7435 151.638 40.4347 151.442C40.2875 151.425 40.1402 151.393 40.0257 151.327C39.7639 151.164 39.6658 150.82 39.6003 150.493C39.404 149.545 39.2077 148.597 39.0277 147.649C39.9112 147.78 40.7783 147.976 41.629 148.335" fill="#122444"/>
<path d="M53.654 95.9558C52.8196 99.438 50.071 115.149 49.5475 117.421C49.1221 119.285 48.3205 121.05 47.6988 122.849C47.1425 124.434 46.7171 126.086 46.2918 127.72C44.5576 134.587 43.0524 141.551 42.5452 148.613C41.0401 148.286 39.4858 148.205 37.9479 148.368C37.0972 140.407 36.7373 132.281 38.2915 124.434C38.9786 120.92 40.0584 117.503 40.4674 113.939C40.9746 109.59 40.4674 105.127 41.3018 100.844C41.3836 100.435 41.4818 100.01 41.7436 99.6832C42.0871 99.2581 42.627 99.0783 43.1342 98.9148C46.619 97.8522 50.1201 96.8713 53.6376 95.9558" fill="#647CBD"/>
<path d="M44.5903 99.4543C44.5085 104.391 44.4103 109.361 43.396 114.184C42.5125 118.402 40.9255 122.456 40.1402 126.69C38.8805 133.573 39.7803 140.635 40.6801 147.567" stroke="#122444" stroke-width="0.5" stroke-miterlimit="10"/>
<g style="mix-blend-mode:multiply" opacity="0.3">
<path d="M40.4838 113.939C40.9255 110.146 40.5983 106.272 41.0564 102.495C42.4143 105.52 42.7906 108.593 42.398 112.01C41.7763 117.617 39.7967 122.963 39.2895 128.587C38.8968 132.919 38.6514 137.382 39.2077 141.714C39.4858 143.905 39.993 147.796 42.5616 148.483C42.5616 148.532 42.5616 148.581 42.5616 148.63C41.0564 148.303 39.5022 148.221 37.9643 148.384C37.1135 140.423 36.7536 132.298 38.3079 124.451C38.995 120.936 40.0748 117.519 40.4838 113.955V113.939Z" fill="#647CBD"/>
</g>
<path d="M52.9832 74.2618C56.4025 77.1881 59.9691 79.9182 63.6665 82.4359C65.3026 79.5586 66.6932 76.5505 67.8384 73.428C68.6401 73.8367 69.4581 74.2454 70.2598 74.6541C69.8017 77.9401 68.8364 81.128 67.3967 84.087C66.9877 84.9535 66.4969 85.8363 65.6952 86.3104C64.1246 87.2913 62.145 86.3594 60.5417 85.4276C58.8238 84.4467 57.1224 83.4495 55.4045 82.4686C55.1427 82.3214 54.881 82.1579 54.6846 81.9291C54.4065 81.5858 54.3247 81.1117 54.2593 80.6703C53.9484 78.6104 53.6376 76.5342 52.9504 74.2454" fill="#F26E63"/>
<path d="M52.5742 73.7386C55.0773 75.0628 57.3678 76.763 59.3474 78.7902C59.5601 79.0027 59.7891 79.2643 59.7891 79.5749C59.7891 79.7874 59.691 79.9836 59.5928 80.1634C58.9711 81.3732 58.333 82.583 57.7113 83.7764C57.6623 83.8581 57.6132 83.9562 57.515 84.0053C57.4005 84.0543 57.286 84.0053 57.1714 83.9726C55.1755 83.2206 53.065 82.3868 51.887 80.6049C51.1508 79.4932 50.889 78.1363 50.7418 76.7957C50.66 76.011 50.6273 75.1772 51.0363 74.4906C51.4453 73.8203 52.4433 73.4607 52.5742 73.7386Z" fill="#FEBF10"/>
<path d="M67.4294 74.507C67.6585 73.6732 67.953 72.4308 67.7894 71.7441C67.6749 71.2864 67.593 70.4526 67.7894 70.0439C67.8385 69.9458 67.9857 69.8314 68.1002 69.9131C68.182 69.9622 68.182 70.0603 68.182 70.142C68.182 70.469 68.4929 71.7605 68.4765 71.4662C68.8201 70.9104 69.18 69.9622 69.36 69.3246C69.4091 69.1775 69.4418 69.0303 69.5399 68.9159C69.6381 68.8015 69.8835 68.6543 69.998 68.7851C70.1453 68.9486 69.6708 70.2728 69.5072 71.0248L70.2598 69.2592C70.3252 69.1121 70.5052 68.9486 70.6361 69.063C70.8161 69.2265 70.2762 70.6161 70.0962 71.4008C70.358 70.8613 70.6197 70.3055 70.8815 69.766C70.9797 69.5535 71.3069 69.1938 71.3887 69.439C71.5359 69.8804 70.9633 70.9758 70.6852 71.7932C70.8815 71.4662 71.0778 71.1392 71.2905 70.7959C71.356 70.6815 71.5196 70.5671 71.6177 70.6651C71.6668 70.7142 71.6668 70.7959 71.6504 70.8613C71.3232 72.2836 70.8161 73.3463 70.2434 74.883C69.4581 74.4252 68.1329 75.1119 67.4622 74.4743" fill="#F26E63"/>
<path d="M52.2797 73.7713C50.6764 72.8885 48.8113 73.6896 47.0116 73.9838C44.0667 74.4743 41.0073 75.0138 38.5696 76.7467C38.3569 76.8938 38.1606 77.0573 38.0134 77.2698C37.8007 77.5804 37.7516 77.9728 37.7352 78.3652C37.5226 82.7955 40.3038 86.8172 40.9255 91.1985C41.1218 92.539 41.1055 93.8959 41.0891 95.2528C41.0728 96.904 41.0564 98.5552 41.04 100.206C46.2918 98.6533 51.5762 97.231 56.8933 95.9395C56.5007 89.0405 54.8319 82.2887 53.1795 75.586C52.9668 74.7522 52.5742 73.9184 52.296 73.7713" fill="#FEBF10"/>
<path d="M37.7352 78.3488C37.7516 77.9728 37.8007 77.5804 38.0134 77.2535C38.1606 77.0409 38.3569 76.8775 38.5696 76.7303C38.8314 76.5505 39.0932 76.387 39.3549 76.2235C39.9439 76.714 40.5002 77.2535 41.0073 77.8257C41.9072 78.8719 42.5125 80.1144 43.0033 81.3896C43.9849 83.9889 44.4594 86.7681 45.3428 89.4002C45.5555 90.0051 45.7682 90.6263 46.1445 91.1494C46.5044 91.6562 47.0934 92.0322 47.7315 91.9832C48.4022 91.9341 49.0076 91.5745 49.5148 91.1494C50.071 90.6917 50.5782 90.2176 51.069 89.6944C51.5598 89.155 51.9852 88.5664 52.4269 88.0106C52.6396 87.749 52.9014 87.5365 53.0977 87.2586C53.294 86.9806 53.4085 86.67 53.5558 86.3594C53.883 85.6891 53.9648 84.9044 54.0302 84.1688C54.0957 83.384 54.0957 82.5993 54.0302 81.8146C53.9157 80.3106 53.7194 78.8065 53.4249 77.3189C53.1631 76.011 52.7869 74.7195 52.0343 73.6078C52.1161 73.6405 52.2142 73.6896 52.296 73.7386C52.5578 73.8857 52.9668 74.7195 53.1795 75.5533C54.8319 82.256 56.5007 89.0078 56.8933 95.9068C51.5762 97.1983 46.2918 98.6206 41.04 100.174L41.0891 95.2201C41.0891 93.8632 41.1218 92.5063 40.9255 91.1658C40.3038 86.7845 37.5226 82.7628 37.7352 78.3325" fill="#FAA51A"/>
<path d="M51.4617 81.4386C50.9218 82.8936 51.1017 84.5448 50.6273 86.0325C50.1201 87.6182 48.8931 88.8771 47.5842 89.907" stroke="#26395E" stroke-width="0.5" stroke-miterlimit="10"/>
<path d="M49.3839 78.4633C49.3348 79.8365 49.2693 81.2261 48.8931 82.5503C48.5168 83.8745 47.7805 85.1497 46.6353 85.9017" stroke="#26395E" stroke-width="0.5" stroke-miterlimit="10"/>
<path d="M46.2427 72.1855C46.3899 73.1991 46.7498 74.18 47.3225 75.0301C46.7171 75.6187 45.7846 75.7331 44.9338 75.7495C44.5085 75.7495 44.0831 75.7495 43.6741 75.635C43.625 75.635 43.5759 75.6023 43.5432 75.5696C43.5105 75.5369 43.4941 75.4879 43.4941 75.4388C43.1833 73.6242 42.8888 71.8095 42.627 69.9949C43.4941 70.142 44.3939 69.8804 45.261 69.9949C45.3428 69.9949 45.4247 70.0276 45.5065 70.0603C45.5883 70.1257 45.6373 70.2074 45.6864 70.3055C45.9809 70.9594 46.1609 71.6461 46.2427 72.1692" fill="#F26E63"/>
<path d="M44.0013 72.7904C43.2651 72.0057 43.1505 70.9267 42.6434 70.0276C43.5105 70.1747 44.4103 69.8968 45.2774 70.0276C45.3592 70.0276 45.441 70.0603 45.5228 70.093C45.6046 70.1584 45.6537 70.2401 45.7028 70.3382C45.9973 70.9921 46.1772 71.6788 46.259 72.2019C46.3408 72.7577 46.4881 73.3136 46.7008 73.8367C45.7028 73.8858 44.6884 73.5261 44.0176 72.7904" fill="#D85447"/>
<path d="M46.6353 67.4119C46.9134 68.0004 47.028 68.6543 47.2897 69.2429C47.6333 70.0603 48.2714 70.8777 48.0587 71.7278C47.8951 72.4308 47.1752 72.9212 46.439 73.0029C45.7028 73.0847 44.9666 72.8068 44.3612 72.3981C43.1833 71.6297 42.3652 70.3545 42.1689 68.9976C42.1035 68.5399 42.0708 68.1475 42.5288 67.6898C43.036 67.183 43.5596 66.9214 44.2467 66.6598C45.2283 66.3002 46.3572 66.8233 46.6517 67.3955" fill="#F26E63"/>
<path d="M44.9666 65.7934C45.8173 65.8588 46.5699 66.5127 46.7335 67.3138C46.7335 67.3792 46.7499 67.4282 46.7335 67.4936C46.668 67.5917 46.5208 67.5754 46.4226 67.5263C46.3245 67.4773 46.21 67.4119 46.0954 67.4446C45.9155 67.4936 45.9155 67.7225 45.85 67.9023C45.7355 68.2129 45.3592 68.3437 45.0156 68.3928C44.6884 68.4418 44.3285 68.4582 44.0177 68.311C43.805 68.2129 43.625 68.0658 43.4123 68.0004C43.1996 67.9187 42.9051 67.9514 42.807 68.1475C42.6761 68.3928 42.9215 68.7034 42.807 68.9649C42.7415 69.1448 42.5289 69.2265 42.3325 69.2429C41.9726 69.2592 41.629 69.0467 41.4327 68.7524C41.2527 68.4582 41.2037 68.0821 41.2691 67.7388C41.3345 67.3792 41.4981 67.0359 41.7599 66.7579C42.3653 66.104 43.3142 65.9242 44.1976 65.7771C44.5412 65.7117 44.9338 65.6626 44.9502 65.7771" fill="#122444"/>
<path d="M44.0831 65.8424C44.9175 65.6136 45.7519 65.401 46.5863 65.1722C46.8153 65.1068 47.0607 65.0414 47.2898 65.0741C47.617 65.1068 47.9278 65.2866 48.1569 65.5155C48.664 66.0386 48.844 66.8233 48.5986 67.4936C48.435 67.9513 47.9933 68.3927 47.4697 68.3437C46.9298 68.2947 46.5863 67.7879 46.0954 67.559C45.9973 67.5099 45.8664 67.4773 45.7682 67.5263C45.7028 67.559 45.6701 67.608 45.621 67.6571C45.4737 67.8042 45.2283 67.8533 45.0157 67.8206C44.803 67.7879 44.6066 67.6571 44.4594 67.5099C44.0013 67.0685 43.8541 66.3819 44.0831 65.8261" fill="#122444"/>
<path d="M43.036 67.7061C42.9379 68.2456 42.9706 68.8015 43.1342 69.3246C43.1505 69.39 43.1833 69.4717 43.1833 69.5371C43.1833 69.6189 43.1669 69.7006 43.1342 69.7823C43.0197 70.1584 42.9215 70.518 42.807 70.894C42.1362 70.5671 41.5799 69.815 41.2855 68.4418C41.2364 68.1966 41.2855 68.1639 41.3836 67.935C41.5636 67.5753 42.038 67.4772 42.4471 67.4445C42.5779 67.4445 42.7252 67.4446 42.8397 67.4936C42.9542 67.5426 43.0524 67.6898 43.0197 67.7061" fill="#122444"/>
<path d="M43.1833 69.6352C42.9706 69.3573 42.578 69.2102 42.2344 69.2919C41.629 69.439 42.2344 70.5671 43.2651 70.7142C43.4123 70.7305 43.5923 70.7142 43.6577 70.5998C43.7232 70.5017 43.6741 70.3709 43.6414 70.2728C43.5269 69.9785 43.3305 69.7006 43.1833 69.6352Z" fill="#F26E63"/>
<path d="M38.9459 78.4305C40.9582 79.6076 41.7108 81.8473 42.1689 83.9235C42.6106 85.8853 42.9051 87.8798 43.0687 89.8906C43.1015 90.2993 43.1342 90.7244 43.3796 91.084C43.9686 91.9342 45.3756 91.9015 46.5208 91.8197C49.3021 91.6235 51.9197 92.4573 54.8483 92.2448C54.4392 92.9804 54.2756 93.8142 54.3738 94.6153C50.4637 95.2692 46.4554 95.9395 42.5125 95.449C41.4163 95.3182 40.3202 95.0894 39.404 94.5499C37.408 93.3891 36.7372 91.1331 36.361 89.0732C35.9683 86.8662 35.7229 84.6265 35.6738 82.3868C35.6411 81.3405 35.6738 80.2288 36.361 79.3624C37.0317 78.4959 38.5369 78.169 38.9623 78.4305" fill="#F26E63"/>
<path d="M38.406 76.8611C39.584 77.1227 40.3366 78.218 40.8764 79.248C42.2507 81.8964 43.0033 84.839 43.0524 87.7817C40.7619 87.7 38.4715 87.7654 36.1974 87.9779C35.772 86.2286 35.4284 84.4467 35.1666 82.6647C35.0358 81.7165 34.9212 80.752 35.1994 79.8365C35.3793 79.248 35.7065 78.7248 36.0828 78.218C36.77 77.3189 37.768 76.714 38.406 76.8611Z" fill="#FEBF10"/>
<path d="M54.292 92.2611C55.2245 92.1794 55.6499 92.114 56.2716 91.7543C56.697 91.5091 57.4986 91.1658 57.9895 91.1985C58.1203 91.1985 58.2676 91.2802 58.2349 91.411C58.2185 91.4928 58.1203 91.5255 58.0222 91.5581C57.695 91.6726 56.5007 92.3429 56.7951 92.2284C57.4823 92.3429 58.5948 92.3102 59.2983 92.2611C59.4619 92.2611 59.6255 92.2284 59.7891 92.2775C59.9527 92.3265 60.1818 92.4737 60.1 92.6208C59.9854 92.8006 58.4639 92.8333 57.6459 92.9477C58.333 92.9641 59.0202 92.9804 59.7237 92.9968C59.8873 92.9968 60.1327 93.0949 60.0672 93.2584C59.9691 93.4709 58.3494 93.4709 57.4986 93.5853L59.4619 93.6998C59.7237 93.6998 60.2145 93.8632 59.9854 94.0104C59.5928 94.2883 58.2676 94.1575 57.335 94.1902C57.744 94.2556 58.1531 94.3046 58.5621 94.37C58.693 94.3864 58.8729 94.4845 58.8238 94.6153C58.7911 94.6807 58.7093 94.697 58.6439 94.697C57.0733 94.8932 55.699 94.6643 53.9321 94.697C54.0793 93.8796 53.9321 93.0458 54.3084 92.2775" fill="#F26E63"/>
<path d="M166.885 61.1505V3.81738H132.299V26.7703" stroke="#446AB3" stroke-miterlimit="10" stroke-dasharray="3 3"/>
<path d="M81.0086 115.312C81.6863 115.312 82.2357 114.763 82.2357 114.086C82.2357 113.409 81.6863 112.86 81.0086 112.86C80.331 112.86 79.7816 113.409 79.7816 114.086C79.7816 114.763 80.331 115.312 81.0086 115.312Z" fill="#446AB3"/>
<path d="M113.877 142.107C114.554 142.107 115.104 141.558 115.104 140.881C115.104 140.203 114.554 139.655 113.877 139.655C113.199 139.655 112.65 140.203 112.65 140.881C112.65 141.558 113.199 142.107 113.877 142.107Z" fill="#446AB3"/>
<path d="M81.0086 113.236V140.881H189.298V122.276" stroke="#446AB3" stroke-miterlimit="10" stroke-dasharray="3 3"/>
<path d="M143.898 142.107C144.576 142.107 145.125 141.558 145.125 140.881C145.125 140.203 144.576 139.655 143.898 139.655C143.221 139.655 142.671 140.203 142.671 140.881C142.671 141.558 143.221 142.107 143.898 142.107Z" fill="#446AB3"/>
<path d="M189.298 126.347C189.976 126.347 190.525 125.798 190.525 125.121C190.525 124.444 189.976 123.895 189.298 123.895C188.621 123.895 188.071 124.444 188.071 125.121C188.071 125.798 188.621 126.347 189.298 126.347Z" fill="#446AB3"/>
<path d="M143.113 119.824H114.646V153.469H143.113V119.824Z" fill="#BCCFEB"/>
<path d="M140.872 132.331C140.872 134.145 139.399 135.6 137.599 135.6H120.159C118.36 135.6 116.887 134.129 116.887 132.331C116.887 130.532 118.36 129.061 120.159 129.061H137.599C139.399 129.061 140.872 130.516 140.872 132.331Z" fill="#647CBD"/>
<path d="M140.872 139.769C140.872 141.567 139.399 143.039 137.599 143.039H120.159C118.36 143.039 116.887 141.567 116.887 139.769C116.887 137.971 118.36 136.499 120.159 136.499H137.599C139.399 136.499 140.872 137.954 140.872 139.769Z" fill="#647CBD"/>
<path d="M140.872 147.191C140.872 148.989 139.399 150.461 137.599 150.461H120.159C118.36 150.461 116.887 148.989 116.887 147.191C116.887 145.393 118.36 143.921 120.159 143.921H137.599C139.399 143.921 140.872 145.376 140.872 147.191Z" fill="#647CBD"/>
<path d="M138.892 130.222H118.883V134.39H138.892V130.222Z" fill="#BCCFEB"/>
<path d="M138.892 137.676H118.883V141.845H138.892V137.676Z" fill="#BCCFEB"/>
<path d="M138.892 145.115H118.883V149.284H138.892V145.115Z" fill="#BCCFEB"/>
<path d="M134.196 131.252H123.579V132.282H134.196V131.252Z" fill="#FEBF10"/>
<path d="M140.872 124.745C140.872 126.543 139.399 128.015 137.599 128.015H120.159C118.36 128.015 116.887 126.56 116.887 124.745C116.887 122.947 118.36 121.475 120.159 121.475H137.599C139.399 121.475 140.872 122.93 140.872 124.745Z" fill="#647CBD"/>
<path d="M138.892 122.636H118.883V126.805H138.892V122.636Z" fill="#BCCFEB"/>
<path d="M134.196 123.682H123.579V124.712H134.196V123.682Z" fill="#FEBF10"/>
<path d="M134.196 138.69H123.579V139.72H134.196V138.69Z" fill="#FEBF10"/>
<path d="M134.196 146.128H123.579V147.158H134.196V146.128Z" fill="#FEBF10"/>
<path d="M119.538 125.415H137.747" stroke="#26395E" stroke-width="0.5" stroke-miterlimit="10" stroke-linecap="round"/>
<path d="M119.423 133.197H138.156" stroke="#26395E" stroke-width="0.5" stroke-miterlimit="10" stroke-linecap="round"/>
<path d="M119.636 140.783H138.761" stroke="#26395E" stroke-width="0.5" stroke-miterlimit="10" stroke-linecap="round"/>
<path d="M119.832 148.368H138.156" stroke="#26395E" stroke-width="0.5" stroke-miterlimit="10" stroke-linecap="round"/>
<g style="mix-blend-mode:multiply" opacity="0.3">
<path d="M130.352 142.532C124.249 136.238 120.846 127.933 117.869 119.824H114.646V153.469H143.113V149.758C138.352 148.548 133.951 146.243 130.352 142.532Z" fill="#BCCFEB"/>
</g>
<path d="M181.331 42.5463H155.236V57.1289H181.331V42.5463Z" fill="#446AB3"/>
<path d="M164.48 44.9004L159.817 49.2163L164.005 52.8129" stroke="white" stroke-miterlimit="10"/>
<path d="M172.251 45.3582L176.734 49.8703L172.398 53.287" stroke="white" stroke-miterlimit="10"/>
<path d="M170.909 44.1157L164.872 55.5758" stroke="white" stroke-miterlimit="10"/>
<path d="M206.542 147.306C205.413 148.646 203.319 148.581 201.978 149.676C201.88 149.758 201.781 149.839 201.732 149.954C201.634 150.199 201.798 150.493 202.027 150.624C202.256 150.739 202.534 150.739 202.796 150.739C204.285 150.69 205.773 150.641 207.262 150.608C207.426 150.608 207.589 150.608 207.737 150.526C208.064 150.379 208.195 150.003 208.309 149.66C208.653 148.63 208.669 147.747 209.013 146.717C208.015 146.733 207.524 147.011 206.526 147.306" fill="#F26E63"/>
<path d="M201.732 149.954C201.781 149.839 201.88 149.758 201.978 149.676C202.518 149.235 203.172 148.989 203.843 148.761C204.056 149.186 204.563 149.398 205.07 149.447C205.413 149.48 205.757 149.48 206.101 149.48C206.444 149.48 206.804 149.48 207.131 149.398C207.655 149.284 208.146 149.055 208.571 148.711C208.506 149.022 208.424 149.333 208.326 149.676C208.211 150.019 208.064 150.395 207.753 150.542C207.606 150.608 207.442 150.608 207.279 150.624C205.79 150.673 204.301 150.722 202.812 150.755C202.55 150.755 202.272 150.755 202.043 150.641C201.814 150.51 201.634 150.215 201.749 149.97" fill="#122444"/>
<path d="M217.226 94.6643C218.6 102.593 214.984 113.514 212.072 121.034C211.663 122.08 211.221 123.127 211.074 124.238C210.943 125.203 211.058 126.184 211.123 127.165C211.483 131.873 210.894 136.32 210.305 140.995C209.962 143.611 209.994 145.066 209.618 148.008C208.898 147.894 205.528 147.338 205.626 147.404C205.266 144.608 203.99 127.884 205.364 116.751C206.15 110.342 207.36 103.999 208.882 97.7214C208.947 97.4762 209.455 94.5172 209.733 94.5335C211.369 94.6807 213.332 94.5826 214.444 94.648H217.226V94.6643Z" fill="#647CBD"/>
<g style="mix-blend-mode:multiply" opacity="0.3">
<path d="M212.072 121.034C213.512 117.29 215.148 112.696 216.244 108.053C216.031 108.25 215.835 108.462 215.655 108.691C214.608 109.95 213.872 111.372 213.185 112.844C211.614 116.146 209.896 119.628 209.209 123.241C208.44 127.295 209.029 131.48 209.16 135.568C209.291 139.687 208.816 143.742 208.473 147.845C208.98 147.927 209.405 147.992 209.618 148.025C209.994 145.066 209.978 143.627 210.305 141.011C210.911 136.336 211.483 131.889 211.123 127.181C211.041 126.2 210.943 125.219 211.074 124.255C211.221 123.143 211.663 122.097 212.072 121.05V121.034Z" fill="#647CBD"/>
</g>
<path d="M219.434 148.859C218.306 150.199 216.211 150.134 214.87 151.229C214.772 151.311 214.674 151.393 214.624 151.507C214.526 151.752 214.69 152.046 214.919 152.177C215.148 152.292 215.426 152.292 215.688 152.292C217.177 152.243 218.665 152.194 220.154 152.161C220.318 152.161 220.481 152.161 220.629 152.079C220.956 151.932 221.087 151.556 221.201 151.213C221.545 150.183 221.561 149.3 221.905 148.27C220.907 148.286 220.416 148.564 219.418 148.859" fill="#F26E63"/>
<path d="M214.624 151.523C214.674 151.409 214.772 151.327 214.87 151.245C215.41 150.804 216.064 150.559 216.735 150.33C216.948 150.755 217.455 150.968 217.962 151.017C218.306 151.049 218.649 151.049 218.993 151.049C219.336 151.049 219.696 151.049 220.023 150.968C220.547 150.853 221.038 150.624 221.463 150.281C221.398 150.591 221.316 150.902 221.218 151.245C221.103 151.589 220.956 151.965 220.645 152.112C220.498 152.177 220.334 152.177 220.171 152.194C218.682 152.243 217.193 152.292 215.704 152.324C215.442 152.324 215.164 152.324 214.935 152.21C214.706 152.079 214.526 151.785 214.641 151.54" fill="#122444"/>
<path d="M222.543 92.6045C225.062 101.106 225.619 110.179 224.146 118.909C223.917 120.266 223.639 121.623 223.704 122.996C223.77 124.304 224.13 125.562 224.392 126.838C225.929 134.341 224.408 142.172 222.052 149.463C220.972 149.284 219.533 149.038 218.453 148.859C219.483 139.982 216.555 129.895 216.015 120.969C215.835 117.944 215.721 113.35 215.295 110.342C214.215 102.74 214.494 100.975 214.444 94.5335C216.457 94.3537 220.547 93.3565 222.543 92.5881" fill="#647CBD"/>
<g style="mix-blend-mode:multiply" opacity="0.3">
<path d="M224.392 126.838C224.13 125.562 223.77 124.304 223.704 122.996C223.639 121.623 223.917 120.266 224.146 118.909C225.619 110.179 225.062 101.106 222.543 92.6045C221.79 92.8987 220.743 93.2093 219.614 93.5036C221.888 97.2473 222.101 102.217 222.265 106.435C222.396 109.786 222.265 113.089 222.118 116.44C221.921 120.364 222.297 124.058 222.886 127.917C223.41 131.382 223.525 134.57 222.87 138.02C222.396 140.521 222.117 143.039 221.659 145.54C221.43 146.799 221.136 148.025 220.776 149.218C221.234 149.3 221.676 149.365 222.068 149.431C224.424 142.139 225.946 134.325 224.408 126.805L224.392 126.838Z" fill="#647CBD"/>
</g>
<path d="M219.156 94.9095C219.173 95.9722 219.729 96.9858 219.876 98.0157C220.04 99.0947 220.089 100.206 220.122 101.302C220.171 103.476 220.4 105.667 220.612 107.825C221.038 112.026 220.972 116.456 220.972 120.74C220.972 124.81 222.297 128.456 222.297 132.445C222.297 136.401 222.363 140.423 221.594 144.281C221.43 145.066 220.629 149.218 220.76 149.251" stroke="#122444" stroke-width="0.5" stroke-miterlimit="10"/>
<path d="M215.426 73.428C217.275 73.4607 219.336 73.5915 220.58 74.9157C221.856 76.2563 221.823 78.2998 221.725 80.1308C221.496 84.7573 221.414 89.7108 223.901 93.6344C219.025 95.7433 213.348 96.0376 208.26 94.4518C208.735 91.2639 209.127 87.9943 208.391 84.8554C207.737 82.0435 206.215 78.9864 207.606 76.4361C208.358 75.0628 209.831 74.1964 211.369 73.804C212.907 73.428 214.51 73.4607 215.41 73.3953" fill="#FEBF10"/>
<path d="M208.931 90.234C209.242 90.2503 209.553 90.2994 209.864 90.283C210.174 90.2667 210.469 90.2013 210.78 90.1522C211.336 90.0541 211.876 89.9887 212.416 89.8253C214.412 89.2204 215.999 87.6673 216.882 85.8363C217.896 83.7437 218.093 81.455 218.06 79.1662C218.044 77.2208 217.717 75.21 216.702 73.5098C218.158 73.6079 219.614 73.9185 220.58 74.9484C221.856 76.289 221.823 78.3325 221.725 80.1635C221.496 84.79 221.414 89.7435 223.901 93.6671C219.025 95.776 213.348 96.0703 208.26 94.4845C208.473 93.0786 208.669 91.6563 208.751 90.234C208.8 90.234 208.866 90.234 208.915 90.234" fill="#FAA51A"/>
<path d="M215.132 82.91C212.547 81.9781 210.485 79.7711 209.782 77.1718" stroke="#26395E" stroke-width="0.5" stroke-miterlimit="10"/>
<path d="M212.187 83.5639C210.992 82.7138 210.043 81.5531 209.471 80.2289" stroke="#26395E" stroke-width="0.5" stroke-miterlimit="10"/>
<path d="M215.295 68.2129C215.639 69.341 217.029 69.7497 217.766 70.6652C218.42 71.4826 218.584 72.7414 219.516 73.2645C220.285 73.6896 221.332 73.4444 222.036 73.9512C222.854 74.5397 222.837 75.7985 223.574 76.4851C223.917 76.8121 224.375 76.9592 224.833 77.0083C226.731 77.2044 228.564 75.3571 228.351 73.4607C228.269 72.7577 227.975 72.1202 227.844 71.4335C227.713 70.7469 227.795 69.9459 228.334 69.5045C228.564 69.3246 228.842 69.2265 229.087 69.063C230.249 68.3601 230.429 66.5618 229.611 65.4828C228.793 64.4038 227.238 64.0278 225.913 64.3711C225.161 64.5673 224.228 64.927 223.688 64.3711C223.492 64.1586 223.394 63.8643 223.246 63.6027C222.886 62.9979 222.134 62.7036 221.43 62.769C220.727 62.8344 220.089 63.2267 219.614 63.7499C219.287 64.0932 219.353 65.1231 219.025 65.4664C218.256 66.2839 217.177 65.3357 216.604 65.5155C216.244 65.6299 215.033 67.3955 215.279 68.1966" fill="#122444"/>
<path d="M212.743 71.7932C212.792 72.8558 212.596 73.9348 212.203 74.9157C212.907 75.4062 213.855 75.3571 214.706 75.21C215.132 75.1446 215.557 75.0465 215.933 74.8667C215.982 74.8503 216.015 74.8176 216.048 74.7849C216.08 74.7359 216.08 74.6868 216.08 74.6378C215.59 72.8722 215.639 71.221 215.95 69.1284C215.115 69.4391 214.15 69.1121 213.299 69.39C213.217 69.4227 213.136 69.4554 213.07 69.5045C212.988 69.5862 212.972 69.6843 212.939 69.7824C212.759 70.5017 212.71 71.2374 212.743 71.7932Z" fill="#F37058"/>
<path d="M215.082 71.9894C215.671 71.0575 215.59 69.9132 215.917 68.8996C215.082 69.2102 214.15 69.0957 213.299 69.3737C213.217 69.4064 213.136 69.4391 213.07 69.4881C212.988 69.5698 212.972 69.6679 212.939 69.766C212.759 70.4853 212.71 71.221 212.743 71.7768C212.776 72.3654 212.727 72.9539 212.612 73.5425C213.61 73.3953 214.543 72.8558 215.082 71.9894Z" fill="#D85447"/>
<path d="M211.467 66.9705C211.303 67.6244 211.14 68.1966 210.992 68.8669C210.796 69.766 210.534 70.4526 210.911 71.3028C211.205 71.9894 211.843 72.5452 212.743 72.5289C213.496 72.5289 214.15 72.1856 214.673 71.6624C215.704 70.6488 216.277 69.2102 216.211 67.7715C216.195 67.2974 216.146 66.8887 215.606 66.5127C215.001 66.0877 214.444 65.9079 213.708 65.7771C212.661 65.5972 211.63 66.3329 211.467 66.9868" fill="#F37058"/>
<path d="M211.287 64.7635C210.371 65.3193 209.978 65.9242 210.403 66.6108C210.682 67.0686 211.091 66.758 211.221 66.7743C211.401 66.7743 211.467 67.0359 211.549 67.1994C211.729 67.4936 212.121 67.559 212.465 67.559C212.808 67.559 213.168 67.4936 213.446 67.2974C213.643 67.1667 213.79 66.9705 213.986 66.856C214.183 66.7416 214.477 66.7253 214.624 66.9051C214.804 67.134 214.624 67.4936 214.772 67.7552C214.87 67.9187 215.099 67.9841 215.295 67.9514C215.655 67.9023 215.966 67.6244 216.097 67.2811C216.228 66.9378 216.195 66.5618 216.08 66.2185C215.95 65.8588 215.721 65.5318 215.41 65.303C214.69 64.7471 213.954 65.2212 213.201 64.6981C212.579 64.2567 211.385 64.6981 211.287 64.7635Z" fill="#122444"/>
<path d="M215.099 66.6272C215.295 67.1503 215.361 67.7389 215.295 68.2947C215.295 68.3764 215.279 68.4418 215.295 68.5236C215.295 68.6053 215.344 68.687 215.377 68.7688C215.557 69.1285 215.737 69.4881 215.901 69.8478C216.506 69.39 217.324 68.7688 217.062 67.4282C217.013 67.1667 216.915 66.758 216.768 66.5454C216.048 65.5645 215.344 66.2839 215.246 66.3656C215.132 66.4473 215.066 66.6108 215.099 66.6272Z" fill="#122444"/>
<path d="M215.606 69.2592C215.884 69.0304 216.31 68.9813 216.62 69.1612C217.177 69.4718 216.277 70.4527 215.23 70.3382C215.082 70.3219 214.919 70.2565 214.886 70.1093C214.853 69.9949 214.919 69.8805 215.001 69.7824C215.197 69.5208 215.442 69.2919 215.622 69.2592" fill="#F37058"/>
<path d="M209.422 60.0061H143.947V123.797H209.422V60.0061Z" fill="#BCCFEB"/>
<path d="M209.405 60.0061H143.947V67.935H209.405V60.0061Z" fill="#647CBD"/>
<path d="M149.461 63.3085C149.461 63.9788 148.921 64.5346 148.234 64.5346C147.547 64.5346 147.007 63.9951 147.007 63.3085C147.007 62.6219 147.547 62.0824 148.234 62.0824C148.921 62.0824 149.461 62.6219 149.461 63.3085Z" fill="white"/>
<path d="M155.121 63.3085C155.121 63.9788 154.582 64.5346 153.894 64.5346C153.207 64.5346 152.667 63.9951 152.667 63.3085C152.667 62.6219 153.207 62.0824 153.894 62.0824C154.582 62.0824 155.121 62.6219 155.121 63.3085Z" fill="white"/>
<path d="M160.782 63.3085C160.782 63.9788 160.242 64.5346 159.555 64.5346C158.868 64.5346 158.328 63.9951 158.328 63.3085C158.328 62.6219 158.868 62.0824 159.555 62.0824C160.242 62.0824 160.782 62.6219 160.782 63.3085Z" fill="white"/>
<path d="M202.976 75.7004H169.731V77.9728H202.976V75.7004Z" fill="#E3ECF8"/>
<path d="M202.976 80.5068H169.731V82.7792H202.976V80.5068Z" fill="#E3ECF8"/>
<path d="M191.327 85.8199H169.731V88.0923H191.327V85.8199Z" fill="#E3ECF8"/>
<path d="M202.469 94.1739H169.731V96.4463H202.469V94.1739Z" fill="#E3ECF8"/>
<path d="M202.469 99.2418H169.731V101.514H202.469V99.2418Z" fill="#E3ECF8"/>
<path d="M202.469 105.323H169.731V107.596H202.469V105.323Z" fill="#E3ECF8"/>
<path d="M202.469 112.402H169.731V114.674H202.469V112.402Z" fill="#E3ECF8"/>
<path d="M164.987 87.3403H155.923V89.6127H164.987V87.3403Z" fill="#E3ECF8"/>
<path d="M164.987 80.5068H155.923V82.7792H164.987V80.5068Z" fill="#E3ECF8"/>
<path d="M164.987 75.7004H147.318V77.9728H164.987V75.7004Z" fill="#E3ECF8"/>
<path d="M164.987 92.4083H149.117V94.6807H164.987V92.4083Z" fill="#E3ECF8"/>
<path d="M164.97 98.2282H157.723V100.501H164.97V98.2282Z" fill="#E3ECF8"/>
<path d="M164.987 104.048H152.487V106.321H164.987V104.048Z" fill="#E3ECF8"/>
<path d="M164.987 113.677H155.023V115.95H164.987V113.677Z" fill="#E3ECF8"/>
<g style="mix-blend-mode:multiply" opacity="0.3">
<path d="M199.147 116.375C190.836 112.991 183.54 107.808 176.652 102.119C163.94 91.5909 152.913 77.041 152.16 60.0225H143.947V123.813H209.422V119.448C205.904 118.696 202.452 117.732 199.147 116.391V116.375Z" fill="#BCCFEB"/>
</g>
<path d="M216.784 84.1361C213.954 85.7545 209.585 88.6645 207.328 89.0242C206.166 89.204 204.988 89.1059 203.859 88.8116C200.702 88.0106 199.262 86.2123 196.35 84.7409C196.939 84.0543 196.579 84.4794 196.906 83.6293C199.704 84.5284 206.673 87.8307 211.041 83.4004C214.494 79.9019 215.066 80.1144 217.7 78.97C218.273 78.7248 219.614 78.4632 220.171 78.7412C220.727 79.0191 221.807 81.2588 216.784 84.1361Z" fill="#F37058"/>
<path d="M196.644 84.79C195.81 84.7082 194.959 84.6265 194.157 84.3322C193.912 84.2505 193.552 84.1688 193.487 83.9235C193.618 83.7764 193.667 83.8908 194.01 83.9726C194.207 84.0216 194.468 84.1197 194.648 84.0543C193.928 83.8581 193.258 83.4331 192.767 82.8609C192.865 82.7792 193.029 82.7792 193.143 82.8282C193.258 82.8773 193.372 82.9753 193.47 83.0571C193.748 83.2696 194.076 83.4004 194.419 83.4494C193.814 83.1715 193.176 82.8282 192.898 82.2233C192.963 82.1416 193.094 82.1252 193.192 82.1579C193.29 82.1906 193.372 82.2724 193.454 82.3378C193.748 82.5993 194.108 82.7955 194.501 82.8936C193.978 82.6157 193.536 82.1906 193.209 81.7002C193.339 81.553 193.569 81.7002 193.716 81.8146C194.125 82.1416 194.567 82.3868 194.976 82.4685C195.041 82.4685 195.368 82.5993 195.401 82.5503C195.434 82.5176 195.237 81.9291 195.205 81.7002C195.188 81.504 195.27 81.2588 195.466 81.2424C195.859 82.2233 196.333 83.286 197.266 83.7437C197.004 84.0707 196.808 84.4467 196.644 84.7409" fill="#F37058"/>
<path d="M220.71 75.2917C221.234 76.0437 221.496 76.9919 221.398 77.9074C221.349 78.4632 221.169 78.9864 220.972 79.5095C220.04 81.88 218.469 84.0053 216.473 85.5911C215.164 84.5938 213.97 83.4494 212.923 82.1906C212.841 82.0925 212.759 81.9945 212.776 81.8637C212.776 81.7656 212.857 81.6838 212.923 81.6184C214.772 79.5586 216.8 77.6622 218.976 75.962C219.402 75.6187 219.86 75.2917 220.4 75.1936C220.612 75.1609 220.94 75.3734 220.727 75.308" fill="#FEBF10"/>
<path d="M188.84 62.3603L188.235 61.7064H188.399L188.84 62.1805L189.282 61.7064H189.446L188.84 62.3603ZM186.943 63.3575V63.5374L188.857 65.6136L190.755 63.5374V63.3575L188.857 65.4337L186.943 63.3575ZM186.943 62.0497V62.2295L188.857 64.3057L190.755 62.2295V62.0497L188.857 64.1259L186.943 62.0497ZM187.172 61.7064H187.008L188.84 63.6518L190.673 61.7064H190.509L188.84 63.4883L187.172 61.7064ZM186.943 62.7036V62.8834L188.857 64.9597L190.755 62.8834V62.7036L188.857 64.7798L186.943 62.7036ZM188.84 62.8344L187.777 61.7064H187.613L188.84 63.0142L190.067 61.7064H189.904L188.84 62.8344ZM186.943 64.0115V64.1586L188.857 66.2348L190.755 64.1586V64.0115L188.857 66.0877L186.943 64.0115Z" fill="white"/>
<path d="M195.221 65.5645H194.321L193.225 62.3276H194.092L194.648 64.3384C194.714 64.5836 194.763 64.8616 194.763 64.8616C194.763 64.8616 194.812 64.5836 194.877 64.3384L195.434 62.3276H196.301L195.205 65.5645H195.221ZM198.035 65.6299C197.201 65.6299 196.742 65.2703 196.742 64.4365V62.3276H197.511V64.4529C197.511 64.7962 197.691 64.9597 198.019 64.9597C198.215 64.9597 198.379 64.927 198.46 64.8943V62.3276H199.229V65.401C198.967 65.5318 198.493 65.6299 198.019 65.6299H198.035ZM201.945 65.5645V63.3575C201.945 62.8834 201.667 62.5565 201.111 62.5565C200.8 62.5565 200.538 62.6219 200.374 62.6872V65.5645H200.047V62.4911C200.325 62.3603 200.702 62.2622 201.127 62.2622C201.88 62.2622 202.289 62.6709 202.289 63.3248V65.5482H201.961L201.945 65.5645ZM205.512 63.7989L203.368 64.1422C203.418 64.9433 203.827 65.3357 204.481 65.3357C204.792 65.3357 205.119 65.2539 205.315 65.1395L205.43 65.4174C205.234 65.5482 204.857 65.6463 204.481 65.6463C203.614 65.6463 203.058 65.0577 203.058 63.9624C203.058 62.9652 203.548 62.2785 204.35 62.2785C205.054 62.2785 205.528 62.769 205.528 63.6191C205.528 63.6681 205.528 63.7335 205.528 63.8153L205.512 63.7989ZM204.334 62.5401C203.728 62.5401 203.368 63.0633 203.352 63.8643L205.184 63.5864C205.184 62.8834 204.841 62.5565 204.334 62.5565V62.5401ZM207.246 65.5809C206.788 65.5809 206.477 65.3193 206.477 64.7635V62.5892H206.002V62.3112H206.477V61.5102L206.804 61.3794V62.3112H207.491V62.5892H206.804V64.7635C206.804 65.1231 207.033 65.2703 207.311 65.2703C207.377 65.2703 207.442 65.2703 207.491 65.2376V65.5482C207.491 65.5482 207.36 65.5809 207.262 65.5809H207.246Z" fill="white"/>
<path d="M54.4556 23.4189L53.8503 22.765H54.0139L54.4556 23.2391L54.8973 22.765H55.061L54.4556 23.4189ZM52.5414 24.4161V24.596L54.4556 26.6722L56.3534 24.596V24.4161L54.4556 26.4923L52.5414 24.4161ZM52.5414 23.1246V23.3044L54.4556 25.3807L56.3534 23.3044V23.1246L54.4556 25.2008L52.5414 23.1246ZM52.7705 22.7813H52.6069L54.4393 24.7267L56.2716 22.7813H56.108L54.4393 24.5633L52.7705 22.7813ZM52.5414 23.7785V23.9584L54.4556 26.0346L56.3534 23.9584V23.7785L54.4556 25.8548L52.5414 23.7785ZM54.4556 23.893L53.3922 22.765H53.2286L54.4556 24.0728L55.6826 22.765H55.519L54.4556 23.893ZM52.5414 25.07V25.2172L54.4556 27.2934L56.3534 25.2172V25.07L54.4556 27.1463L52.5414 25.07Z" fill="white"/>
<path d="M60.8198 26.6231H59.92L58.8239 23.3862H59.691L60.2472 25.397C60.3127 25.6422 60.3617 25.9202 60.3617 25.9202C60.3617 25.9202 60.4108 25.6422 60.4763 25.397L61.0325 23.3862H61.8996L60.8035 26.6231H60.8198ZM63.6338 26.6885C62.7994 26.6885 62.3414 26.3289 62.3414 25.4951V23.3862H63.1103V25.5115C63.1103 25.8548 63.2903 26.0183 63.6175 26.0183C63.8138 26.0183 63.9774 25.9856 64.0592 25.9529V23.3862H64.8281V26.4597C64.5664 26.5904 64.0919 26.6885 63.6175 26.6885H63.6338ZM67.544 26.6231V24.4161C67.544 23.942 67.2659 23.6151 66.7096 23.6151C66.3987 23.6151 66.137 23.6805 65.9734 23.7459V26.6231H65.6462V23.5497C65.9243 23.4189 66.3006 23.3208 66.726 23.3208C67.4785 23.3208 67.8875 23.7295 67.8875 24.3834V26.6068H67.5603L67.544 26.6231ZM71.1106 24.8575L68.9673 25.2008C69.0164 26.0019 69.4254 26.3943 70.0798 26.3943C70.3907 26.3943 70.7179 26.3125 70.9142 26.1981L71.0288 26.476C70.8324 26.6068 70.4561 26.7049 70.0798 26.7049C69.2127 26.7049 68.6565 26.1163 68.6565 25.021C68.6565 24.0238 69.1473 23.3371 69.949 23.3371C70.6525 23.3371 71.1269 23.8276 71.1269 24.6777C71.1269 24.7267 71.1269 24.7921 71.1269 24.8739L71.1106 24.8575ZM69.949 23.5987C69.3436 23.5987 68.9837 24.1219 68.9673 24.9229L70.7997 24.645C70.7997 23.942 70.4561 23.6151 69.949 23.6151V23.5987ZM72.8611 26.6558C72.403 26.6558 72.0922 26.3943 72.0922 25.8384V23.6641H71.6177V23.3862H72.0922V22.5851L72.4194 22.4543V23.3862H73.1065V23.6641H72.4194V25.8384C72.4194 26.1981 72.6484 26.3452 72.9266 26.3452C72.992 26.3452 73.0574 26.3452 73.1065 26.3125V26.6231C73.1065 26.6231 72.9756 26.6558 72.8775 26.6558H72.8611Z" fill="white"/>
</g>
<defs>
<clipPath id="clip0_2002_1205">
<rect width="252" height="154" fill="white" transform="translate(4 3)"/>
</clipPath>
</defs>
</svg>
